<?xml version="1.0" encoding="utf-8"?>
<!-- Generator: Adobe Illustrator 24.3.0, SVG Export Plug-In . SVG Version: 6.00 Build 0)  -->
<svg version="1.1" id="圖層_1" xmlns="http://www.w3.org/2000/svg" xmlns:xlink="http://www.w3.org/1999/xlink" x="0px" y="0px"
	 viewBox="0 0 24 24" style="enable-background:new 0 0 24 24;" xml:space="preserve">
<style type="text/css">
	.st0{fill:#A6A7A7;}
	.st1{fill:#A6A7A7;stroke:#FFFFFF;stroke-width:0.25;stroke-miterlimit:10;}
	.st2{fill-rule:evenodd;clip-rule:evenodd;fill:#A6A7A7;}
</style>
<g id="Group_38" transform="translate(0 0.001)">
	<path id="Path_57" class="st2" d="M16.4,15.2L12,22.8l-4.4-7.6H16.4z"/>
	<path id="Path_58" class="st2" d="M7.6,12.8c0-0.5,0.4-1,1-1h6.8c0.5,0,1,0.4,1,1l0,0c0,0.5-0.4,1-1,1c0,0,0,0,0,0H8.6
		C8.1,13.8,7.6,13.3,7.6,12.8z"/>
	<path id="Path_59" class="st2" d="M7.6,9.3c0-0.5,0.4-1,1-1h6.8c0.5,0,1,0.4,1,1c0,0,0,0,0,0l0,0c0,0.5-0.4,1-1,1H8.6
		C8.1,10.2,7.6,9.8,7.6,9.3z"/>
	<path id="Path_60" class="st2" d="M7.6,5.7c0-0.5,0.4-1,1-1h6.8c0.5,0,1,0.4,1,1l0,0c0,0.5-0.4,1-1,1c0,0,0,0,0,0H8.6
		C8.1,6.7,7.6,6.3,7.6,5.7z"/>
	<path id="Path_61" class="st2" d="M7.6,2.2c0-0.5,0.4-1,1-1h6.8c0.5,0,1,0.4,1,1l0,0l0,0c0,0.5-0.4,1-1,1c0,0,0,0,0,0H8.6
		C8.1,3.2,7.6,2.7,7.6,2.2z"/>
</g>
</svg>
