<?xml version="1.0" encoding="utf-8"?>
<!-- Generator: Adobe Illustrator 24.3.0, SVG Export Plug-In . SVG Version: 6.00 Build 0)  -->
<svg version="1.1" id="圖層_1" xmlns="http://www.w3.org/2000/svg" xmlns:xlink="http://www.w3.org/1999/xlink" x="0px" y="0px"
	 viewBox="0 0 24 24" style="enable-background:new 0 0 24 24;" xml:space="preserve">
<style type="text/css">
	.st0{fill:#A6A7A7;}
	.st1{fill:#A6A7A7;stroke:#FFFFFF;stroke-width:0.25;stroke-miterlimit:10;}
	.st2{fill-rule:evenodd;clip-rule:evenodd;fill:#A6A7A7;}
</style>
<g id="Group_36">
	<path id="Path_55" class="st0" d="M12,5.5L13.7,1L14,5.8l3-3.7l-1.2,4.6l4-2.6l-2.6,4L21.9,7l-3.7,3l4.8,0.3L18.5,12l4.4,1.7
		L18.2,14l3.7,3l-4.6-1.2l2.6,4l-4-2.6l1.2,4.6l-3-3.7L13.7,23L12,18.5L10.3,23L10,18.2l-3,3.7l1.2-4.6l-4,2.6l2.6-4L2.1,17l3.7-3
		L1,13.7L5.5,12L1,10.3L5.8,10L2.1,7l4.6,1.2l-2.6-4l4,2.6L7,2.1l3,3.7L10.3,1L12,5.5z"/>
	<path id="Path_56" class="st1" d="M17.1,12c0,2.8-2.3,5.1-5.1,5.1c-2.8,0-5.1-2.3-5.1-5.1c0-2.8,2.3-5.1,5.1-5.1c0,0,0,0,0,0
		C14.8,6.9,17.1,9.2,17.1,12C17.1,12,17.1,12,17.1,12z"/>
</g>
</svg>
