<?xml version="1.0" encoding="utf-8"?>
<!-- Generator: Adobe Illustrator 24.3.0, SVG Export Plug-In . SVG Version: 6.00 Build 0)  -->
<svg version="1.1" id="圖層_1" xmlns="http://www.w3.org/2000/svg" xmlns:xlink="http://www.w3.org/1999/xlink" x="0px" y="0px"
	 viewBox="0 0 24 24" style="enable-background:new 0 0 24 24;" xml:space="preserve">
<style type="text/css">
	.st0{fill:#D08E40;}
	.st1{fill:none;}
	.st2{fill-rule:evenodd;clip-rule:evenodd;fill:#FFFFFF;}
</style>
<g>
	<path class="st0" d="M23,10.3C23,10.3,22.9,10.3,23,10.3c-0.2,0-0.3,0-0.4,0c-0.2,0-0.4,0-0.6,0.1c-0.3,0.1-0.7,0.3-1,0.4
		c-0.4,0.2-0.9,0.4-1.3,0.5c-0.6,0.2-0.9,0.3-1.2,0.3c-0.5,0-0.6-0.3-0.7-1.5c0-0.1,0-0.1-0.1-0.2c0,0,0,0,0,0c0,0,0,0-0.1,0
		c-0.5,0.1-0.9,0.4-1.2,0.7c-0.4,0.3-0.7,0.6-1.2,0.7c0.6-2.8,0.7-4.7,0.1-5.8c0,0,0,0,0,0c0,0,0,0-0.1,0C15.1,5.6,15,5.7,15,5.8
		c-0.2,0.2-0.4,0.4-0.5,0.6c0,0-0.1,0.1-0.1,0.1c-0.2,0.2-0.4,0.4-0.6,0.4c-0.1,0-0.1,0-0.2,0c-0.3-0.1-0.4-0.5-0.4-0.8l0-0.1
		C13.1,5.6,13,5.2,13,4.9c-0.1-0.8-0.1-1.6-0.5-2.3c0,0,0-0.1-0.1-0.1c-0.1-0.2-0.2-0.5-0.6-0.5c0,0,0,0,0,0c0,0,0,0,0,0.1
		c0.2,0.8,0.4,1.6,0.5,2.6c0,0.1,0,0.2,0,0.3c0.1,0.6,0.1,1.3,0.4,1.9c0.2,0.6,0.5,0.8,0.9,0.8c0.2,0,0.5-0.1,0.8-0.4
		c0.1-0.1,0.1-0.1,0.2-0.2c0.1-0.1,0.2-0.3,0.4-0.3c0.1,1.8-0.1,3.2-0.5,4.6c-0.1,0.4-0.1,0.6,0,0.7c0.1,0.1,0.2,0.1,0.3,0.1
		c0.1,0,0.3,0,0.4-0.1c0.4-0.1,0.7-0.3,1-0.5c0.1-0.1,0.3-0.2,0.4-0.3c0.1-0.1,0.3-0.1,0.4-0.1c0,0,0.2,0,0.2,0.4
		c0,0.6,0.3,0.9,0.8,0.9c0.1,0,0.3,0,0.5-0.1c0.2,0,0.5-0.1,0.7-0.2c0.2-0.1,0.4-0.1,0.6-0.2c0.2,0,0.4-0.2,0.6-0.2
		c0.3-0.1,0.6-0.3,0.9-0.3c0.1,0,0.1,0,0.2,0c-0.1,0.1-0.2,0.2-0.2,0.4c-0.2,0.3-0.4,0.6-0.6,1c-0.3,0.4-0.3,0.8-0.1,1.1
		c0.1,0.2,0.2,0.3,0.2,0.4c0,0.1-0.2,0.2-0.5,0.3l0,0c-1.1,0.5-1.5,1.2-1.2,2.1c-0.1,0-0.2,0-0.3,0c-0.3,0-0.6,0-0.9,0
		c-0.3,0-0.5,0.1-0.6,0.2c-0.1,0.1-0.1,0.4,0.1,0.7c0.1,0.1,0.2,0.3,0.2,0.4c0.1,0.2,0.3,0.4,0.3,0.7c-1.4-0.6-1.5-0.6-3,0
		c-0.5,0.2-0.9,0.3-1.2,0.3c-0.7,0-1.2-0.5-1.7-1.6c-0.5-1.4-0.9-9-0.9-10.4c0,0,0-0.1-0.1-0.1c0,0-0.1,0-0.1,0
		c-0.4,1.7,0.1,9.2,0.7,10.8c0,0,0,0,0,0l0.5,2.4c-0.1,0.2-0.1,0.4-0.2,0.7c0,0.2,0,0.3-0.1,0.5c-0.1,0.2-0.3,0.4-0.4,0.6
		c0,0.1-0.1,0.1-0.1,0.2c0,0,0,0.1-0.1,0.1c-0.1,0.1-0.2,0.3-0.1,0.5c0.1,0.1,0.2,0.1,0.2,0.1c0.2,0,0.3-0.1,0.4-0.2l0,0
		c0.8-0.6,1.2-1.4,1.1-2.3c0-0.4,0.2-0.6,0.5-0.6h0h0c0.7,0,1.4-0.3,2.1-0.6c0.1,0,0.2-0.1,0.3-0.1c0.6-0.3,1.1-0.2,1.5,0.1
		c0.1,0,0.1,0.1,0.2,0.1c0.3,0.2,0.7,0.5,1,0.5c0.1,0,0.2,0,0.3-0.1c0.3-0.3,0.1-0.7-0.2-1.1c-0.1-0.1-0.2-0.3-0.2-0.4
		c0,0,0-0.1,0-0.1C18,17.9,18,17.8,18,17.7c0-0.1,0.2-0.1,0.5-0.1c0.1,0,0.1,0,0.2,0c0.8,0,1.5-0.1,2.1-0.4c0,0,0,0,0-0.1
		c0,0,0,0,0-0.1l-0.3-0.1c-0.2-0.1-0.3-0.2-0.5-0.3c-0.3-0.2-0.4-0.3-0.4-0.4c0-0.1,0.1-0.3,0.4-0.4c0.4-0.3,0.9-0.6,1.3-0.9
		l0.2-0.2c0,0,0,0,0.1,0c0.1-0.1,0.2-0.1,0.2-0.2c0-0.1,0-0.2-0.1-0.2c-0.8-0.7-0.4-1.2,0.1-1.9c0.1-0.1,0.1-0.2,0.2-0.3
		c0.1-0.1,0.2-0.2,0.3-0.4C22.6,11.3,22.9,10.9,23,10.3C23,10.4,23,10.3,23,10.3z"/>
	<path class="st0" d="M10.3,3.2C10.3,3.2,10.3,3.2,10.3,3.2C10.1,3.6,10.1,4,10,4.3C9.9,5.2,9.7,6,8.6,6C8.4,6,8.2,6,8,6
		C7.6,5.7,7.3,5.7,7.2,5.9C7.1,6,7,6.3,7.1,6.6c0,0.1,0,0.2,0,0.4c0,0.2,0,0.5,0.1,0.7c0.1,0.5,0.2,1,0.5,1.4c0,0.2,0.1,0.5,0.2,0.7
		c0.2,0.5,0.4,1-0.3,1.5c0,0,0,0,0,0.1c0,0,0,0,0,0.1c0.1,0,0.2,0,0.3,0c0.2,0,0.4-0.1,0.5-0.2c0.1-0.2,0.2-0.4,0.1-0.8
		C8.4,9.9,8.3,9.4,8,8.9C7.8,8.5,7.7,8.1,7.5,7.6c0-0.1,0-0.2,0-0.3c0-0.2,0-0.5,0-0.8c0-0.1,0-0.2,0.1-0.3c0,0,0.1,0,0.1,0
		c0.1,0,0.2,0,0.3,0.1c0,0,0,0,0,0c0,0,0,0,0,0c0.2,0,0.4,0.1,0.6,0.1c0.6,0,1.1-0.3,1.5-0.7C10.5,5.1,10.6,4.2,10.3,3.2
		C10.4,3.2,10.4,3.2,10.3,3.2z"/>
	<path class="st0" d="M3.1,12.4c0.4,0.4,0.8,0.8,0.8,1.4c0,0,0,0.1,0.1,0.1h0c0,0,0.1,0,0.1-0.1c0.1-0.9-0.4-1.7-1.5-2.2
		c0-0.1-0.1-0.1-0.1-0.2c0,0-0.1-0.1-0.1-0.2c0,0,0,0,0.2,0c0,0,0.1,0,0.1,0c0.2,0,0.4,0,0.7,0c0.4,0,0.8,0,1.1,0
		c0.4,0,0.6-0.2,0.7-0.5c0.1-0.4,0-0.7-0.3-0.9c0,0,0,0-0.1,0c0,0,0,0,0,0.1c0,1-0.1,1-1,1.1c-0.3,0-0.6,0-0.9-0.1
		c-0.3,0-0.6-0.1-0.9-0.1c-0.2,0-0.4,0-0.6,0.1c0,0,0,0,0,0c0,0,0,0,0,0.1l0,0.1c0.4,0.4,0.7,0.7,1.1,0.8C2.7,12,2.9,12.2,3.1,12.4z
		"/>
	<path class="st0" d="M8.2,18.9c-0.3-0.1-0.7,0.1-0.8,0.6c-0.2,0.1-0.3,0.2-0.4,0.2c-0.1,0-0.1-0.1-0.2-0.4c0-0.2,0-0.4-0.2-0.4
		c0,0,0,0,0,0c0-0.5-0.2-0.8-0.5-1c-0.6-0.5-1.3-0.8-2.2-0.9c-0.4-0.5-0.9-0.9-1.4-1.2c-0.1-0.1-0.2-0.1-0.2-0.2c0,0-0.1,0-0.1,0
		c0,0,0,0.1,0,0.1c0.5,0.7,1,1.2,1.7,1.4c0,0,0,0,0,0c0.3,0.2,0.6,0.4,0.9,0.5c0.6,0.3,1.3,0.6,1.7,1.3c0,0,0,0,0,0c0,0,0,0,0,0
		c0,0,0,0,0,0l0,0.1c-0.1,0.4-0.1,0.7,0,0.9C6.7,20,7,20.1,7.4,20c0.2,0,0.3,0,0.5,0.1c0.1,0,0.2,0.1,0.4,0.1c0,0,0,0,0,0
		c0,0,0,0,0,0c0,0,0,0,0,0c0-0.1,0-0.2,0-0.3c0,0,0,0,0,0c0,0,0,0,0,0c0-0.1,0-0.2,0-0.3C8.4,19.2,8.4,19,8.2,18.9z"/>
</g>
<path class="st1" d="M0,0h24v24H0V0z"/>
<rect x="7.5" y="12.1" class="st2" width="4.9" height="5.3"/>
<g>
	<path class="st0" d="M10.2,13.8c0.2,0,0.3-0.1,0.3-0.2c0,0,0.1,0.1,0.1,0.1c0,0-0.3,0.1-0.3,0.3c0,0.1,0.1,0.1,0.1,0.2
		c0,0,0,0,0.1,0c0.2-0.1,0.3-0.4,0.2-0.7c0,0-0.4,0-0.6,0.2C10.1,13.6,10.1,13.7,10.2,13.8z M10.2,13.5
		C10.3,13.5,10.3,13.6,10.2,13.5c0.1,0.1,0,0.2,0,0.2C10.2,13.7,10.2,13.7,10.2,13.5C10.2,13.6,10.2,13.5,10.2,13.5z"/>
	<path class="st0" d="M10.4,14.2C10.4,14.2,10.3,14.1,10.4,14.2c-0.1-0.1-0.1-0.2-0.2-0.2c0,0,0,0,0,0.1c0,0-0.1,0.1-0.1,0
		c0,0,0-0.1,0-0.2c0-0.1-0.1-0.2-0.1-0.2c-0.1,0.1-0.2,0.3-0.1,0.7C9.9,14.3,10.1,14.3,10.4,14.2z"/>
	<path class="st0" d="M8.7,14.1C8.7,14.1,8.7,14.1,8.7,14.1c0.1-0.1,0.2-0.2,0.2-0.3c0-0.2-0.4-0.4-0.4-0.4c0-0.1,0.1-0.2,0.1-0.2
		c0,0.1,0.2,0.3,0.5,0.3c0.1,0,0.2-0.2,0.2-0.2c-0.4-0.3-1-0.2-1-0.2C8.2,13.7,8.4,14,8.7,14.1z M8.9,13.2c0.1,0,0.1,0,0.1,0.1
		c0,0.1,0,0.1-0.1,0.1c-0.1,0-0.1,0-0.1-0.1C8.8,13.3,8.8,13.3,8.9,13.2z"/>
	<path class="st0" d="M9.2,13.7c0,0.1,0.1,0.2,0.1,0.3c0,0.1-0.1,0.1-0.1,0c0,0,0-0.1-0.1-0.1C9,14,9,14,8.9,14.1
		c0,0.1-0.1,0.1-0.1,0.1c0.4,0.2,0.9,0.1,0.9,0.1c0-0.5-0.2-0.8-0.4-1C9.2,13.5,9.1,13.6,9.2,13.7z"/>
	<path class="st0" d="M8.2,14.9c0-0.1,0-0.2-0.1-0.3c-0.1-0.1-0.2-0.1-0.3-0.1c-0.1,0-0.2,0-0.2,0c-0.1,0-0.1,0.1-0.2,0.1
		c0.1-0.2,0.2-0.3,0.3-0.4c0.1-0.1,0.2-0.1,0.3-0.2c0,0,0.1,0,0.1,0c0,0,0.1,0,0.1,0c0,0,0,0,0.1,0.1c0,0,0,0.1,0.1,0.1L8.3,14
		c0,0-0.1-0.1-0.1-0.1c0,0-0.1,0-0.1,0c-0.1,0-0.1,0-0.1,0c0,0-0.1,0-0.1,0c-0.1,0-0.2,0-0.3,0C7.4,14,7.3,14,7.2,14
		c-0.1,0-0.2,0.1-0.2,0.2c-0.1,0.1-0.1,0.1-0.2,0.2l-0.6,1.1c0,0,0,0.1-0.1,0.1c0,0-0.1,0.1-0.1,0.2h0.7l0.1-0.1c0,0,0,0,0,0.1
		c0,0,0,0,0.1,0c0,0,0.1,0,0.1,0c0,0,0.1,0,0.2,0c0.1,0,0.2,0,0.4-0.1c0.1,0,0.2-0.1,0.3-0.2c0.1-0.1,0.2-0.2,0.2-0.3
		C8.2,15.1,8.2,15,8.2,14.9z M7.4,15.2c-0.1,0.2-0.3,0.4-0.4,0.4c0,0,0,0-0.1-0.1c0,0,0,0,0,0c0-0.1,0-0.3,0.1-0.4
		c0.1-0.2,0.3-0.4,0.4-0.4C7.6,14.8,7.6,15,7.4,15.2z"/>
	<path class="st0" d="M15.9,15.2C15.9,15.2,15.9,15.3,15.9,15.2c-0.1,0.1-0.1,0.1-0.2,0.1c0,0-0.1,0-0.1,0.1c0,0-0.1,0-0.1,0
		c0,0-0.1,0-0.1,0c0,0,0,0,0-0.1c0,0,0-0.1,0-0.1l0.2-0.4c0,0,0-0.1,0-0.1c0,0,0-0.1,0-0.1c0,0-0.1-0.1-0.1-0.1c0,0-0.1,0-0.2,0
		c-0.1,0-0.2,0-0.3,0.1c-0.1,0-0.2,0.1-0.3,0.2c0,0,0-0.1,0-0.2c0,0,0-0.1-0.1-0.1c0,0-0.1,0-0.1,0c-0.1,0-0.1,0-0.2,0
		c-0.1,0-0.1,0-0.2,0c-0.1,0-0.1,0-0.1,0c0,0,0,0.1,0,0.1c0-0.1-0.1-0.1-0.2-0.1c-0.1,0-0.2-0.1-0.3-0.1c-0.2,0-0.3,0-0.4,0
		c-0.1,0-0.2,0.1-0.3,0.1c0,0-0.1,0-0.1,0.1c0,0,0,0,0,0c0-0.1-0.1-0.1-0.2-0.1c-0.1,0-0.2-0.1-0.3-0.1c-0.2,0-0.7,0-0.8,0
		c0,0,0,0,0,0c0,0,0,0-0.1,0c-0.1,0-0.1,0-0.2,0.1c-0.1,0-0.1,0.1-0.2,0.1c0,0,0-0.1,0-0.1c0-0.1-0.1-0.2-0.2-0.2c0,0-0.1,0-0.1,0
		c0,0-0.1,0-0.1,0c0,0-0.1,0-0.1,0c0,0-0.1,0-0.1,0c0,0-0.1,0-0.1,0H9.7l0,0.1c0,0,0,0,0-0.1c0,0,0,0-0.1,0c0,0-0.1,0-0.1,0
		c0,0-0.1,0-0.2,0c-0.1,0-0.2,0-0.4,0.1c-0.1,0-0.2,0.1-0.3,0.2c-0.1,0.1-0.2,0.2-0.2,0.3c-0.1,0.1-0.1,0.2-0.1,0.4
		c0,0.1,0,0.2,0.1,0.3c0.1,0.1,0.2,0.1,0.3,0.1c0.1,0,0.2,0,0.2,0c0.1,0,0.1-0.1,0.2-0.1c-0.1,0.2-0.3,0.6-0.4,0.7c0,0,0,0-0.1,0.1
		c-0.1,0.1-0.2,0.1-0.2,0.1c-0.1,0-0.1,0-0.2,0c-0.1,0-0.1-0.1-0.1-0.2c0,0.1-0.1,0.1-0.1,0.2c0,0,0,0,0,0c0.3,0.3,1,0.1,1.3-0.1
		c0.2-0.2,0.3-0.4,0.4-0.6c0.1-0.1,0.1-0.3,0.2-0.4c0.1-0.1,0.1-0.2,0.2-0.4c0-0.1,0.1-0.1,0.1-0.2c0,0,0-0.1,0.1-0.1c0,0,0,0,0,0
		c0,0,0,0,0,0c0,0,0,0,0,0.1c0,0.1,0,0.5-0.5,1c0.3,0,0.6-0.1,0.8-0.3c0.1-0.1,0.2-0.2,0.3-0.4c0,0,0,0,0.1-0.1c0,0,0,0,0.1,0
		c0,0,0,0,0.1,0c0,0,0.1,0,0.1,0c0,0,0.1,0,0.1,0c0,0,0,0,0,0c0,0-0.1,0.1-0.1,0.1c0,0.1,0,0.2,0,0.3c0,0.1,0,0.1,0.1,0.2
		c0.1,0.1,0.1,0.1,0.2,0.1c0.1,0,0.2,0,0.4,0c0.1,0,0.2,0,0.3,0c0.1,0,0.2,0,0.3-0.1c0.1,0,0.2-0.1,0.2-0.1c0,0,0,0,0,0c0,0,0,0,0,0
		c0.1,0.1,0.1,0.1,0.2,0.1c0.1,0,0.2,0,0.4,0c0,0,0.1,0,0.1,0c0,0,0,0,0,0h1l0.4-0.9c0,0,0,0,0.1-0.1c0,0,0.1,0,0.1,0
		c0,0,0.1,0,0.1,0c0,0,0,0,0,0.1l-0.3,0.5l0,0c0,0,0,0.1,0,0.1c0,0,0,0.1,0,0.1s0,0.1,0.1,0.1c0,0,0.1,0,0.2,0c0.1,0,0.1,0,0.2,0
		c0.1,0,0.2,0,0.3-0.1c0.1,0,0.2-0.1,0.3-0.1c0.1,0,0.1-0.1,0.2-0.2L15.9,15.2z M9.5,15.1c-0.1,0.2-0.3,0.4-0.4,0.4
		c-0.1,0-0.1-0.3,0-0.5c0.1-0.2,0.3-0.4,0.4-0.4C9.6,14.6,9.6,14.9,9.5,15.1z M12,14.9c0.1-0.2,0.2-0.3,0.3-0.4c0,0,0,0,0,0
		c0,0,0.1,0,0.1,0c0.1,0,0.1,0.3,0,0.5h-0.4C12,15,12,15,12,14.9z M12.5,15.3L12.5,15.3c0,0.1-0.1,0.1-0.1,0.1c0,0-0.1,0.1-0.1,0.1
		c0,0-0.1,0.1-0.1,0.1c-0.1,0-0.1,0-0.2,0c-0.1,0-0.1,0-0.2,0c0,0,0-0.1,0-0.1c0,0,0-0.1,0-0.2c0-0.1,0.1-0.1,0.1-0.2h0.6
		C12.5,15.2,12.5,15.2,12.5,15.3z M13.3,14.9c0.1-0.2,0.3-0.4,0.4-0.4c0.1,0,0.1,0.3,0,0.5h-0.4C13.3,15,13.3,15,13.3,14.9z
		 M13.8,15.4C13.8,15.4,13.8,15.4,13.8,15.4c-0.1,0.1-0.1,0.1-0.1,0.1c0,0-0.1,0.1-0.1,0.1c-0.1,0-0.1,0-0.2,0c-0.1,0-0.1,0-0.2,0
		c0,0,0-0.1,0-0.1c0,0,0-0.1,0-0.2c0-0.1,0.1-0.1,0.1-0.2h0.6L13.8,15.4z"/>
</g>
<path class="st0" d="M16.4,12.5c-2-0.1-3.9-0.1-5.6-0.1c-1.8,0-3.5,0-5.2,0.1c0,0-0.1,0-0.1,0.1c0,0,0,0.1,0.1,0.1
	c1.7,0.1,3.4,0.1,5.2,0.1c1.8,0,3.7,0,5.7-0.1C16.5,12.6,16.5,12.6,16.4,12.5C16.5,12.5,16.5,12.5,16.4,12.5z"/>
<path class="st0" d="M16.4,17c-2-0.1-3.8-0.1-5.6-0.1c-1.8,0-3.5,0-5.2,0.1c0,0-0.1,0-0.1,0.1c0,0,0,0.1,0.1,0.1
	c1.7,0.1,3.4,0.1,5.2,0.1c1.8,0,3.7,0,5.7-0.1C16.5,17.2,16.5,17.1,16.4,17C16.5,17.1,16.5,17,16.4,17z"/>
</svg>
