<?xml version="1.0" encoding="utf-8"?>
<!-- Generator: Adobe Illustrator 24.3.0, SVG Export Plug-In . SVG Version: 6.00 Build 0)  -->
<svg version="1.1" id="圖層_1" xmlns="http://www.w3.org/2000/svg" xmlns:xlink="http://www.w3.org/1999/xlink" x="0px" y="0px"
	 viewBox="0 0 24 24" style="enable-background:new 0 0 24 24;" xml:space="preserve">
<style type="text/css">
	.st0{fill:#302D2C;}
</style>
<g id="Group_158" transform="translate(-534.775 -322.182)">
	<path id="Path_185" class="st0" d="M546.7,324.7l5.5,4.3l-5.4,4l0-2c-1.8,0-3.4,1.1-4.1,2.8l-3.8-1.6c1.2-3.2,4.3-5.3,7.7-5.2
		L546.7,324.7z"/>
	<path id="Path_186" class="st0" d="M550,332.7l3.4-2.6c2,2.7,2.3,6.3,0.6,9.3l1.8,1.1l-6.4,2.6l-0.8-6.9l1.8,1.2
		C551.3,335.9,551.1,334,550,332.7z"/>
	<path id="Path_187" class="st0" d="M547.4,339.4l0.5,4.2c0,0-5.8,0.8-8.4-4.2l-1.8,1.1l0.9-6.7l6.3,2.5l-1.7,1.1
		C543.2,337.4,544,339.8,547.4,339.4z"/>
</g>
</svg>
