<?xml version="1.0" encoding="utf-8"?>
<!-- Generator: Adobe Illustrator 24.3.0, SVG Export Plug-In . SVG Version: 6.00 Build 0)  -->
<svg version="1.1" id="圖層_1" xmlns="http://www.w3.org/2000/svg" xmlns:xlink="http://www.w3.org/1999/xlink" x="0px" y="0px"
	 viewBox="0 0 24 24" style="enable-background:new 0 0 24 24;" xml:space="preserve">
<style type="text/css">
	.st0{fill:#A6A7A7;}
	.st1{fill:#A6A7A7;stroke:#FFFFFF;stroke-width:0.25;stroke-miterlimit:10;}
	.st2{fill-rule:evenodd;clip-rule:evenodd;fill:#A6A7A7;}
</style>
<g id="Group_38" transform="translate(0 0.001)">
	<path id="Path_57" class="st2" d="M7.6,8.8L12,1.2l4.4,7.6H7.6z"/>
	<path id="Path_58" class="st2" d="M16.4,11.2c0,0.5-0.4,1-1,1H8.6c-0.5,0-1-0.4-1-1l0,0c0-0.5,0.4-1,1-1c0,0,0,0,0,0h6.8
		C15.9,10.2,16.4,10.7,16.4,11.2z"/>
	<path id="Path_59" class="st2" d="M16.4,14.7c0,0.5-0.4,1-1,1H8.6c-0.5,0-1-0.4-1-1c0,0,0,0,0,0l0,0c0-0.5,0.4-1,1-1h6.8
		C15.9,13.8,16.4,14.2,16.4,14.7z"/>
	<path id="Path_60" class="st2" d="M16.4,18.3c0,0.5-0.4,1-1,1H8.6c-0.5,0-1-0.4-1-1l0,0c0-0.5,0.4-1,1-1c0,0,0,0,0,0h6.8
		C15.9,17.3,16.4,17.7,16.4,18.3z"/>
	<path id="Path_61" class="st2" d="M16.4,21.8c0,0.5-0.4,1-1,1H8.6c-0.5,0-1-0.4-1-1l0,0l0,0c0-0.5,0.4-1,1-1c0,0,0,0,0,0h6.8
		C15.9,20.8,16.4,21.3,16.4,21.8z"/>
</g>
</svg>
