<svg xmlns="http://www.w3.org/2000/svg" xmlns:xlink="http://www.w3.org/1999/xlink" width="240" height="240" viewBox="0 0 240 240">
  <defs>
    <linearGradient id="linear-gradient" x1="0.515" y1="-1.309" x2="0.496" y2="1.473" gradientUnits="objectBoundingBox">
      <stop offset="0" stop-color="#fff"/>
      <stop offset="0.357" stop-color="#a6a7a7"/>
      <stop offset="0.74" stop-color="#5f5e5e"/>
    </linearGradient>
    <linearGradient id="linear-gradient-2" x1="0.514" y1="-1.34" x2="0.495" y2="1.512" xlink:href="#linear-gradient"/>
    <linearGradient id="linear-gradient-3" x1="0.514" y1="-2.2" x2="0.495" y2="1.665" xlink:href="#linear-gradient"/>
    <linearGradient id="linear-gradient-4" x1="0.511" y1="-4.002" x2="0.492" y2="4.539" xlink:href="#linear-gradient"/>
    <linearGradient id="linear-gradient-5" x1="0.555" y1="-5.811" x2="0.453" y2="5.876" xlink:href="#linear-gradient"/>
    <linearGradient id="linear-gradient-6" x1="0.513" y1="-1.372" x2="0.495" y2="1.496" xlink:href="#linear-gradient"/>
    <linearGradient id="linear-gradient-7" x1="0.574" y1="-7.956" x2="0.5" y2="0.685" xlink:href="#linear-gradient"/>
    <linearGradient id="linear-gradient-8" x1="0.571" y1="-8.9" x2="0.499" y2="0.389" xlink:href="#linear-gradient"/>
    <linearGradient id="linear-gradient-9" x1="0.567" y1="-12.32" x2="0.5" y2="0.547" xlink:href="#linear-gradient"/>
    <linearGradient id="linear-gradient-10" x1="0.604" y1="-12.787" x2="0.496" y2="0.576" xlink:href="#linear-gradient"/>
    <linearGradient id="linear-gradient-11" x1="0.621" y1="-9.433" x2="0.496" y2="0.684" xlink:href="#linear-gradient"/>
    <linearGradient id="linear-gradient-12" x1="0.603" y1="-7.712" x2="0.494" y2="0.742" xlink:href="#linear-gradient"/>
    <linearGradient id="linear-gradient-13" x1="0.574" y1="-12.712" x2="0.498" y2="0.563" xlink:href="#linear-gradient"/>
    <linearGradient id="linear-gradient-14" x1="0.604" y1="-12.757" x2="0.495" y2="0.607" xlink:href="#linear-gradient"/>
    <linearGradient id="linear-gradient-15" x1="0.576" y1="-12.75" x2="0.499" y2="0.614" xlink:href="#linear-gradient"/>
    <linearGradient id="linear-gradient-16" x1="0.72" y1="-40.304" x2="0.482" y2="3.701" xlink:href="#linear-gradient"/>
    <linearGradient id="linear-gradient-17" x1="0.789" y1="-13.195" x2="0.498" y2="0.608" xlink:href="#linear-gradient"/>
    <linearGradient id="linear-gradient-18" x1="0.62" y1="-9.4" x2="0.496" y2="0.716" xlink:href="#linear-gradient"/>
    <linearGradient id="linear-gradient-19" x1="0.574" y1="-12.68" x2="0.498" y2="0.596" xlink:href="#linear-gradient"/>
    <linearGradient id="linear-gradient-20" x1="0.603" y1="-12.724" x2="0.495" y2="0.639" xlink:href="#linear-gradient"/>
    <linearGradient id="linear-gradient-21" x1="0.571" y1="-12.246" x2="0.5" y2="0.622" xlink:href="#linear-gradient"/>
    <linearGradient id="linear-gradient-22" x1="0.502" y1="-0.044" x2="0.499" y2="0.977" xlink:href="#linear-gradient"/>
    <clipPath id="clip-M1_SVG_運動家具">
      <rect width="240" height="240"/>
    </clipPath>
  </defs>
  <g id="M1_SVG_運動家具" clip-path="url(#clip-M1_SVG_運動家具)">
    <rect width="240" height="240" fill="#fff"/>
    <g id="Group_221" data-name="Group 221" transform="translate(8 59)">
      <g id="Group_220" data-name="Group 220">
        <g id="Group_215" data-name="Group 215" transform="translate(0 1.743)" opacity="0.2">
          <g id="Group_212" data-name="Group 212" transform="translate(25.843 50.399)">
            <path id="Path_218" data-name="Path 218" d="M411.6,351.219h-1.859V345.46l0-.027a1.578,1.578,0,0,0-3.156,0l0,.027v5.759H393.823v-3.671l6.806-.008a1.638,1.638,0,1,0,0-3.276H383.572a1.642,1.642,0,0,0,0,3.284h6.982v3.671h-7.71a1.664,1.664,0,0,0-.027,3.327l.027,0h7.71v1.8h-4.005c-2.844,0-5.248,2.684-5.248,5.856v6.249a4.742,4.742,0,0,0,4.523,5h4.73v3.171h-6.966s-.5-.031-.658-.031a1.656,1.656,0,0,0-1.637,1.668,1.694,1.694,0,0,0,1.508,1.644h7.753v3.1h-8.786a1.659,1.659,0,0,0-.327,3.281l.133.023,29.937-.031a5.559,5.559,0,0,0,5.3-5.649V356.817A5.489,5.489,0,0,0,411.6,351.219Zm-21.043,15.3v3.612h-4.71a1.528,1.528,0,0,1-1.372-1.671v-1.94Zm0-3.284h-6.082v-1.029a2.351,2.351,0,0,1,2.073-2.529h4.009Zm9.171,5.22a1.526,1.526,0,0,1-1.367,1.676h-4.535v-3.612h5.9Zm0-7.1v1.878h-5.9v-3.557h4.531A1.55,1.55,0,0,1,399.726,361.36Zm6.849,12.9a2.236,2.236,0,0,1-2.124,2.377H393.823v-3.171h4.535a4.734,4.734,0,0,0,4.535-5v-7.1a4.744,4.744,0,0,0-4.512-5.007h-4.558v-1.8h12.752Zm-12.752,5.657h10.628a5.557,5.557,0,0,0,5.287-5.657V354.5h1.8a2.2,2.2,0,0,1,2.1,2.314v23.825a2.235,2.235,0,0,1-2.123,2.376H393.823Z" transform="translate(-333.645 -343.886)" fill="#0f111a"/>
            <path id="Path_219" data-name="Path 219" d="M438.2,373.437h-2.446l-.023-24.257A5.439,5.439,0,0,0,430.188,344H413.727a5.374,5.374,0,0,0-5.49,5.092v24.343h-2.442a1.609,1.609,0,0,0,.042,3.218h5.6l-4.656,5.917a1.57,1.57,0,0,0-.62,1.243,1.55,1.55,0,0,0,1.546,1.547,1.522,1.522,0,0,0,1.177-.542h0l.032-.031,5.29-6.475a.668.668,0,0,0,.086-.11l.011-.015a1.61,1.61,0,0,0,.3-.935,1.536,1.536,0,0,0-.116-.6h15.572a1.575,1.575,0,0,0-.272.9,1.6,1.6,0,0,0,.28.911l.023.044,4.746,6.175a1.178,1.178,0,0,0,.132.168l.024.023a1.574,1.574,0,0,0,1.18.53,1.6,1.6,0,0,0,1.6-1.6,1.545,1.545,0,0,0-.463-1.123l-4.415-5.918a.524.524,0,0,0-.07-.1h5.361a1.609,1.609,0,0,0,.023-3.218Zm-26.7-14.513V354.93h21.016v3.993Zm0,7.091V362.13h21.016v3.885Zm21.016-14.3H411.483c0-.424.008-1.578.008-1.881v-.682a2.108,2.108,0,0,1,2.236-2.049h16.461a2.194,2.194,0,0,1,2.333,2.073Zm0,17.51v4.208H411.506v-4.208Z" transform="translate(-263.884 -343.55)" fill="#0f111a"/>
            <path id="Path_220" data-name="Path 220" d="M426.753,370.9H424.93a2.348,2.348,0,0,1-2.089-2.532V356.816l3.316-2.887.019-.02a1.636,1.636,0,0,0,.519-1.2,1.67,1.67,0,0,0-2.836-1.2l-6.62,5.786a5.424,5.424,0,0,0-5.1-4.391H405.27l3.082-2.684h14.61a1.64,1.64,0,1,0,0-3.281H397.432a1.64,1.64,0,0,0-.031,3.281h5.929L392.866,359.5a1,1,0,0,0-.164.156l-.02.011a1.616,1.616,0,0,0-.448,1.13,1.644,1.644,0,0,0,1.644,1.64,1.618,1.618,0,0,0,1.067-.4l6.495-5.766h6.117l-12.23,10.539-.019.008a1.606,1.606,0,0,0,1.068,2.805,1.576,1.576,0,0,0,1.029-.377l14.914-12.694a2.442,2.442,0,0,0,.28-.2,2.143,2.143,0,0,1,1.589,2.2v1.422l-16.457,14.381-.027.035a1.643,1.643,0,0,0-.5,1.165,1.6,1.6,0,0,0,2.661,1.211l14.322-12.428v7.457a2.247,2.247,0,0,1-2.138,2.385h-6.008a1.668,1.668,0,0,0-.292,3.308l.121.012,6.179-.027a5.581,5.581,0,0,0,5.329-5.677V361.562l2.284-1.984v8.79c0,3.187,2.416,5.879,5.268,5.879h1.838l.031-.008a1.67,1.67,0,0,0-.047-3.339Z" transform="translate(-298.596 -335.022)" fill="#0f111a"/>
            <path id="Path_221" data-name="Path 221" d="M393.776,357.718a1.6,1.6,0,0,0,1.488-1.005l.023-.05c.012-.039,1.224-3.834,1.278-3.993a1.756,1.756,0,0,1,.557-.651,1.776,1.776,0,0,1,1.118-.4h24.417a1.794,1.794,0,0,1,1.04.339,1.95,1.95,0,0,1,.612.744c.055.2.819,2.965,1.029,3.737.016.074.035.132.063.222l.012.023a1.587,1.587,0,0,0,3.073-.561,1.751,1.751,0,0,0-.035-.339l-.024-.082-.008-.043-.168-.619-1.184-3.85s-.043-.121-.133-.35a5.592,5.592,0,0,0-1.165-1.36,5.683,5.683,0,0,0-1.5-.881,4.56,4.56,0,0,0-1.585-.315h-11.8V345.6l0-.062a1.642,1.642,0,0,0-3.284,0l0,2.75H398.2a4.532,4.532,0,0,0-1.586.315,4.913,4.913,0,0,0-1.368.776l-.1.078a4.233,4.233,0,0,0-1.083,1.2c-.121.23-.37.9-.382.931l-1.2,3.421-.2.561-.008.024a1.649,1.649,0,0,0-.094.53A1.6,1.6,0,0,0,393.776,357.718Z" transform="translate(-298.758 -343.86)" fill="#0f111a"/>
            <path id="Path_222" data-name="Path 222" d="M372.11,353.719a1.639,1.639,0,1,0,2.837-1.609l-3.366-6.468-.047-.1a1.6,1.6,0,0,0-.163-.277,1.663,1.663,0,0,0-1.321-.666,1.639,1.639,0,0,0-1.636,1.636,1.6,1.6,0,0,0,.276.916Z" transform="translate(-367.583 -341.813)" fill="#0f111a"/>
            <path id="Path_223" data-name="Path 223" d="M403.3,381.916H391.109a1.575,1.575,0,0,0,.751-1.255l0-.031-.008-2.712h10.364a1.6,1.6,0,0,0,.023-3.206H391.857V372.37h7.473a4.617,4.617,0,0,0,4.426-4.882v-5.712a4.612,4.612,0,0,0-4.41-4.878h-7.488v-1.687h9.658l.066.008a1.61,1.61,0,0,0,1.6-1.609,1.836,1.836,0,0,0-.058-.421h.035a1.564,1.564,0,0,0,1.566-1.567l0-.046,0-.039-.436-4.083a3.583,3.583,0,0,0-1.29-2.389,4.847,4.847,0,0,0-1.566-.834,6.041,6.041,0,0,0-1.632-.182H380.325a6.468,6.468,0,0,0-1.267.182,4.8,4.8,0,0,0-1.6.861,3.5,3.5,0,0,0-1.259,2.353l-.288,2.435c-.035.41-.156,1.4-.156,1.422h0a1.372,1.372,0,0,0-.039.331,1.546,1.546,0,0,0,1.539,1.547.538.538,0,0,0,.082,0,1.678,1.678,0,0,0-.062.433,1.606,1.606,0,0,0,1.5,1.6h.043a.39.39,0,0,0,.133,0h9.708V356.9h-6.841c-2.774,0-5.108,2.61-5.108,5.7v4.893a4.626,4.626,0,0,0,4.4,4.882h7.546v2.341H378.2a1.618,1.618,0,0,0-1.562,1.609,1.594,1.594,0,0,0,1.594,1.6h10.426v2.28l0,.39a1.608,1.608,0,0,0,.76,1.328H379.328c-1.442,0-3.425-1.192-3.468-2.4V362.61a4.612,4.612,0,0,0-4.4-4.874l-1.593-.035a1.912,1.912,0,0,0-.339.039,2.192,2.192,0,0,0-.421.16,1.624,1.624,0,0,0-.031,2.895,1.858,1.858,0,0,0,.538.179c.121.012.292.012.417.012h1.418a1.485,1.485,0,0,1,1.325,1.624v17.708a1.477,1.477,0,0,1-1.329,1.621h-1.6a1.639,1.639,0,0,0-.051,3.277h.07l1.578-.016a4.211,4.211,0,0,0,3.32-1.64,7.049,7.049,0,0,0,4.566,1.6H403.3a1.625,1.625,0,1,0,0-3.249ZM379.8,363V362.6a2.266,2.266,0,0,1,2.015-2.447h6.841V363Zm8.856,3.2v2.906h-7.531a1.482,1.482,0,0,1-1.325-1.62V366.2Zm3.2-17.45,0-.039a1.626,1.626,0,0,0-1.118-1.422H399.9a1.638,1.638,0,0,1,1.056.405,1.8,1.8,0,0,1,.378,1.044l.261,2.883a1.536,1.536,0,0,0,.047.39,1.672,1.672,0,0,0-.207.008h-9.576V348.9Zm-3.2.073v3.2h-9.615a1.1,1.1,0,0,0-.159-.008.5.5,0,0,0-.11.008l.382-3.269a1.761,1.761,0,0,1,.417-1.076h.008a1.516,1.516,0,0,1,1.013-.385h9.187A1.626,1.626,0,0,0,388.658,348.826ZM400.65,363h-8.793v-2.856h7.476a1.481,1.481,0,0,1,1.317,1.628Zm-8.793,3.2h8.793v1.286a1.478,1.478,0,0,1-1.32,1.62h-7.473ZM369.864,385.06Z" transform="translate(-368.2 -343.411)" fill="#0f111a"/>
          </g>
          <g id="Group_214" data-name="Group 214">
            <g id="Group_213" data-name="Group 213" transform="translate(20.754 102.536)">
              <path id="Path_224" data-name="Path 224" d="M372.586,363.08l-.02-.008c-.066-.031-.155-.066-.265-.114-1.511-.627-2.279-1.3-2.279-1.987a1.265,1.265,0,0,1,.479-1.044,2.13,2.13,0,0,1,1.364-.4,2.189,2.189,0,0,1,1.079.257,2.711,2.711,0,0,1,.869.83l.074.1,2.041-.951-.058-.136a3.148,3.148,0,0,0-1.516-1.64,5.766,5.766,0,0,0-2.669-.557,4.768,4.768,0,0,0-3.152,1,3.232,3.232,0,0,0-1.22,2.638,3.02,3.02,0,0,0,.811,2.131,10.266,10.266,0,0,0,3.147,1.9c.1.035.238.105.437.179,1.294.565,1.948,1.189,1.948,1.858a1.558,1.558,0,0,1-.542,1.251,2.256,2.256,0,0,1-1.508.475,3.078,3.078,0,0,1-1.68-.421,2.15,2.15,0,0,1-.884-1.212l-.047-.167-2.1.881.035.136a3.617,3.617,0,0,0,1.562,2.232,5.453,5.453,0,0,0,3.02.771,5.216,5.216,0,0,0,3.491-1.1A3.723,3.723,0,0,0,376.311,367a3.109,3.109,0,0,0-.814-2.186A8.863,8.863,0,0,0,372.586,363.08Z" transform="translate(-366.894 -356.788)" fill="#0f111a"/>
              <path id="Path_225" data-name="Path 225" d="M375.619,358.583a4.105,4.105,0,0,0-1.98.444,2.823,2.823,0,0,0-.935.779v-.939h-2.392V371.3H372.7v-4.68a3.733,3.733,0,0,0,1.075.787,4.334,4.334,0,0,0,1.769.354,4.057,4.057,0,0,0,3.14-1.25,4.755,4.755,0,0,0,1.15-3.374,4.683,4.683,0,0,0-1.164-3.3A4,4,0,0,0,375.619,358.583Zm1.734,4.6a2.818,2.818,0,0,1-.608,1.928,2.211,2.211,0,0,1-1.706.647,2.238,2.238,0,0,1-1.734-.709,2.754,2.754,0,0,1-.666-1.925,2.673,2.673,0,0,1,.619-1.886,2.562,2.562,0,0,1,3.464.016A2.76,2.76,0,0,1,377.353,363.188Z" transform="translate(-356.995 -353.46)" fill="#0f111a"/>
              <path id="Path_226" data-name="Path 226" d="M382.35,359.93a4.877,4.877,0,0,0-1.671-1,5.859,5.859,0,0,0-3.947,0,5.059,5.059,0,0,0-1.656.978,4.426,4.426,0,0,0-1.126,1.481,4.1,4.1,0,0,0-.393,1.776,4.156,4.156,0,0,0,.389,1.765,4.591,4.591,0,0,0,1.13,1.488,5.147,5.147,0,0,0,1.664,1.009,5.836,5.836,0,0,0,3.919,0,5.471,5.471,0,0,0,1.707-1.021,4.43,4.43,0,0,0,1.122-1.465,4.23,4.23,0,0,0,.382-1.777,4.174,4.174,0,0,0-.385-1.749A4.684,4.684,0,0,0,382.35,359.93Zm-.99,3.242A2.42,2.42,0,0,1,380.59,365a2.706,2.706,0,0,1-3.752,0,2.564,2.564,0,0,1,0-3.654,2.725,2.725,0,0,1,3.76,0A2.456,2.456,0,0,1,381.36,363.172Z" transform="translate(-347.598 -353.46)" fill="#0f111a"/>
              <path id="Path_227" data-name="Path 227" d="M382.563,358.684a3.842,3.842,0,0,0-.9-.1,2.485,2.485,0,0,0-1.457.42,2.653,2.653,0,0,0-.635.686v-.83h-2.4v8.563h2.4v-3.771a5.14,5.14,0,0,1,.429-2.443,1.451,1.451,0,0,1,1.348-.673,2.27,2.27,0,0,1,.659.081,1.672,1.672,0,0,1,.53.238l.152.09.825-1.761.066-.14-.144-.073A4.516,4.516,0,0,0,382.563,358.684Z" transform="translate(-337.123 -353.46)" fill="#0f111a"/>
              <path id="Path_228" data-name="Path 228" d="M383.463,357.856H381.07v3.116h-1.587v1.963h1.587v6.59h2.394v-6.59h1.592v-1.963h-1.592Z" transform="translate(-330.436 -355.564)" fill="#0f111a"/>
              <path id="Path_229" data-name="Path 229" d="M388.923,357.311a6.453,6.453,0,0,0-.709-.043,3.257,3.257,0,0,0-2.443.83,3.549,3.549,0,0,0-.795,2.532v2.046h-1.594v1.963h1.594v6.593h2.392v-6.593h2.181v-1.963h-2.181v-1.8a2.2,2.2,0,0,1,.292-1.313,1.149,1.149,0,0,1,.951-.354,1.843,1.843,0,0,1,.471.058,2.818,2.818,0,0,1,.467.179l.23.125v-2.084l-.113-.035C389.413,357.392,389.172,357.35,388.923,357.311Z" transform="translate(-319.144 -357.268)" fill="#0f111a"/>
              <path id="Path_230" data-name="Path 230" d="M392.33,363.456a2.159,2.159,0,0,1-.506,1.605,3.1,3.1,0,0,1-3.323,0,2.172,2.172,0,0,1-.491-1.605v-4.8h-2.4v4.239a4.929,4.929,0,0,0,1.091,3.545,4.743,4.743,0,0,0,3.483,1.111,4.673,4.673,0,0,0,3.448-1.118,4.957,4.957,0,0,0,1.083-3.538v-4.239H392.33Z" transform="translate(-312.694 -353.248)" fill="#0f111a"/>
              <path id="Path_231" data-name="Path 231" d="M394.34,358.684a3.865,3.865,0,0,0-.9-.1,2.492,2.492,0,0,0-1.462.42,2.464,2.464,0,0,0-.631.686v-.83h-2.392v8.563h2.392v-3.771a5.147,5.147,0,0,1,.428-2.443,1.456,1.456,0,0,1,1.348-.673,2.223,2.223,0,0,1,.655.081,1.644,1.644,0,0,1,.534.238l.152.09.861-1.832.035-.07-.152-.073A4.244,4.244,0,0,0,394.34,358.684Z" transform="translate(-303.004 -353.46)" fill="#0f111a"/>
              <path id="Path_232" data-name="Path 232" d="M399.773,359.81a2.678,2.678,0,0,0-1.188-.92,4.638,4.638,0,0,0-1.789-.307,4.918,4.918,0,0,0-2.112.408,3.7,3.7,0,0,0-1.242.939v-1.063h-2.264v8.556h2.388v-3.911a8.593,8.593,0,0,1,.09-1.449,1.64,1.64,0,0,1,.292-.694,2.067,2.067,0,0,1,.83-.642,3.26,3.26,0,0,1,1.239-.226,1.791,1.791,0,0,1,1.418.471,3.6,3.6,0,0,1,.4,2.061v4.391h2.408v-5.154a7.584,7.584,0,0,0-.11-1.613A2.266,2.266,0,0,0,399.773,359.81Z" transform="translate(-296.566 -353.46)" fill="#0f111a"/>
              <path id="Path_233" data-name="Path 233" d="M395.927,357.442a1.511,1.511,0,0,0-1.028.386,1.232,1.232,0,0,0-.44.943,1.259,1.259,0,0,0,.436.958,1.5,1.5,0,0,0,1.032.4,1.451,1.451,0,0,0,1.025-.39,1.307,1.307,0,0,0,0-1.925A1.523,1.523,0,0,0,395.927,357.442Z" transform="translate(-287.067 -356.764)" fill="#0f111a"/>
              <rect id="Rectangle_59" data-name="Rectangle 59" width="2.389" height="8.553" transform="translate(107.671 5.408)" fill="#0f111a"/>
              <path id="Path_234" data-name="Path 234" d="M399.894,357.856H397.5v3.116h-1.593v1.963H397.5v6.59h2.391v-6.59h1.587v-1.963h-1.587Z" transform="translate(-282.86 -355.564)" fill="#0f111a"/>
              <path id="Path_235" data-name="Path 235" d="M404.784,363.456a2.15,2.15,0,0,1-.495,1.605,3.106,3.106,0,0,1-3.328,0,2.174,2.174,0,0,1-.494-1.605v-4.8h-2.4v4.239a4.885,4.885,0,0,0,1.094,3.545,4.712,4.712,0,0,0,3.479,1.111,4.65,4.65,0,0,0,3.444-1.118,4.937,4.937,0,0,0,1.091-3.538v-4.239h-2.4Z" transform="translate(-276.604 -353.248)" fill="#0f111a"/>
              <path id="Path_236" data-name="Path 236" d="M406.8,358.684a3.935,3.935,0,0,0-.9-.1,2.452,2.452,0,0,0-1.457.42,2.593,2.593,0,0,0-.631.678v-.822h-2.392v8.563h2.392v-3.771a5.1,5.1,0,0,1,.425-2.443,1.456,1.456,0,0,1,1.348-.673,2.326,2.326,0,0,1,.659.081,1.814,1.814,0,0,1,.533.238l.152.09.856-1.832.031-.07-.144-.073A4.8,4.8,0,0,0,406.8,358.684Z" transform="translate(-266.911 -353.46)" fill="#0f111a"/>
              <path id="Path_237" data-name="Path 237" d="M413.191,363.067a4.292,4.292,0,0,0-1.273-3.3,5.658,5.658,0,0,0-7.064.109,4.292,4.292,0,0,0-1.387,3.3,4.347,4.347,0,0,0,1.344,3.335,5.015,5.015,0,0,0,3.581,1.254,5.674,5.674,0,0,0,2.731-.631,5.167,5.167,0,0,0,1.952-1.9l.093-.156-1.909-.958-.133-.062-.074.128a2.773,2.773,0,0,1-2.708,1.535,2.22,2.22,0,0,1-2.392-2.135h7.238ZM406.128,362a2.2,2.2,0,0,1,.748-1.083,2.621,2.621,0,0,1,1.554-.421,2.694,2.694,0,0,1,1.609.432,1.773,1.773,0,0,1,.654,1.071Z" transform="translate(-260.977 -353.46)" fill="#0f111a"/>
            </g>
            <path id="Path_238" data-name="Path 238" d="M584.274,369.977,483.565,331.16a3.1,3.1,0,0,0-2.053-.065L363.694,368.862a3.053,3.053,0,0,0-2.127,2.918v18.99a3.066,3.066,0,0,0,6.133,0V374.017l114.657-36.751L580.1,374.94v65.6H544.141a3.065,3.065,0,1,0,0,6.129h39.031a3.069,3.069,0,0,0,3.062-3.07V372.836A3.078,3.078,0,0,0,584.274,369.977Z" transform="translate(-361.567 -330.95)" fill="#0f111a"/>
          </g>
        </g>
        <g id="Group_219" data-name="Group 219">
          <g id="Group_216" data-name="Group 216" transform="translate(25.843 50.401)">
            <path id="Path_239" data-name="Path 239" d="M411.6,350.775h-1.859v-5.759l0-.038a1.578,1.578,0,0,0-3.156.015l0,.016v5.766H393.823v-3.67h6.806a1.646,1.646,0,0,0,0-3.292l-.011.008-17.046-.008a1.646,1.646,0,0,0,0,3.292h6.982v3.67h-7.71a1.664,1.664,0,0,0-.027,3.327h7.737v1.812h-4.005c-2.844,0-5.248,2.676-5.248,5.856v6.245a4.748,4.748,0,0,0,4.523,5h4.73v3.171h-6.966s-.5-.031-.658-.031a1.654,1.654,0,0,0-1.637,1.676,1.675,1.675,0,0,0,1.508,1.625h7.753v3.117h-8.786a1.661,1.661,0,0,0-.327,3.285l.133.02,29.937-.027a5.556,5.556,0,0,0,5.3-5.654v-23.82A5.489,5.489,0,0,0,411.6,350.775Zm-21.043,15.3v3.616h-4.71a1.533,1.533,0,0,1-1.372-1.672v-1.944Zm0-3.289h-6.082v-1.016a2.364,2.364,0,0,1,2.073-2.537h4.009Zm9.171,5.229a1.528,1.528,0,0,1-1.367,1.675h-4.535v-3.616h5.9Zm0-7.107v1.878h-5.9v-3.553h4.531A1.548,1.548,0,0,1,399.726,360.909Zm6.849,12.893a2.241,2.241,0,0,1-2.124,2.384H393.823v-3.171l4.535.007a4.74,4.74,0,0,0,4.535-5.006v-7.107a4.731,4.731,0,0,0-4.512-4.994h-4.558V354.1h12.752Zm-12.752,5.653h10.628a5.553,5.553,0,0,0,5.287-5.653V354.056c.507,0,.935,0,1.2.008h.6a2.191,2.191,0,0,1,2.1,2.31v23.82a2.238,2.238,0,0,1-2.123,2.377H393.823Z" transform="translate(-333.645 -343.439)" fill="url(#linear-gradient)"/>
            <path id="Path_240" data-name="Path 240" d="M438.2,372.988l-.023-.008h-2.423l-.023-24.253a5.433,5.433,0,0,0-5.544-5.17H413.727a5.369,5.369,0,0,0-5.49,5.092V372.98h-2.411l-.031.008a1.605,1.605,0,0,0,.042,3.21h5.6l-4.656,5.926a1.549,1.549,0,1,0,2.1,2.243h0l.032-.031,5.29-6.479a.7.7,0,0,0,.086-.1l.011-.016a1.631,1.631,0,0,0,.3-.939,1.556,1.556,0,0,0-.116-.6h15.572a1.625,1.625,0,0,0-.272.911,1.508,1.508,0,0,0,.28.888.08.08,0,0,0,.023.051l4.746,6.183a1.31,1.31,0,0,0,.132.16l.024.027a1.58,1.58,0,0,0,1.18.534,1.6,1.6,0,0,0,1.6-1.606,1.586,1.586,0,0,0-.463-1.129l-4.415-5.9a.548.548,0,0,0-.07-.116h5.361a1.605,1.605,0,0,0,.023-3.21Zm-26.7-14.517v-4h21.016v4Zm0,7.087v-3.885h21.016v3.885Zm21.016-14.291H411.483c0-.425.008-1.582.008-1.878V348.7a2.105,2.105,0,0,1,2.236-2.042h16.461a2.191,2.191,0,0,1,2.333,2.065Zm0,17.512v4.2H411.506v-4.2Z" transform="translate(-263.884 -343.098)" fill="url(#linear-gradient-2)"/>
            <path id="Path_241" data-name="Path 241" d="M426.753,370.446H424.93a2.338,2.338,0,0,1-2.089-2.525V356.377l3.316-2.891.019-.028a1.633,1.633,0,0,0,.519-1.2,1.662,1.662,0,0,0-2.836-1.181l-6.62,5.778a5.412,5.412,0,0,0-5.1-4.383H405.27l3.082-2.688h14.61a1.644,1.644,0,0,0,0-3.289H397.432a1.643,1.643,0,0,0-1.644,1.636,1.664,1.664,0,0,0,1.613,1.652h5.929l-10.465,9.257a1.112,1.112,0,0,0-.164.152l-.02.015a1.627,1.627,0,0,0-.448,1.134,1.637,1.637,0,0,0,2.712,1.243l6.495-5.77h6.117l-12.23,10.531-.019.02a1.605,1.605,0,0,0,2.1,2.431l14.914-12.7a1.736,1.736,0,0,0,.28-.191,2.122,2.122,0,0,1,1.589,2.182v1.43l-16.457,14.392-.027.027a1.607,1.607,0,0,0,1.107,2.77,1.637,1.637,0,0,0,1.056-.394l14.322-12.436v7.469a2.244,2.244,0,0,1-2.138,2.376h-6.008a1.666,1.666,0,0,0-.292,3.3l.121.031,6.179-.042a5.581,5.581,0,0,0,5.329-5.669V361.115l2.284-1.983v8.789c0,3.187,2.416,5.879,5.268,5.879h1.87a1.677,1.677,0,0,0-.047-3.354Z" transform="translate(-298.596 -334.574)" fill="url(#linear-gradient-3)"/>
            <path id="Path_242" data-name="Path 242" d="M393.776,357.275a1.608,1.608,0,0,0,1.488-1.009l.023-.047c.012-.035,1.224-3.83,1.278-4a1.763,1.763,0,0,1,.557-.65,1.783,1.783,0,0,1,1.118-.382h24.417a1.786,1.786,0,0,1,1.04.331,1.869,1.869,0,0,1,.612.736c.055.207.819,2.969,1.029,3.744.016.063.035.133.063.222l.012.02a1.586,1.586,0,0,0,3.073-.553,1.8,1.8,0,0,0-.035-.347l-.024-.086-.008-.031-.168-.635-1.184-3.838s-.043-.125-.133-.359a5.916,5.916,0,0,0-1.165-1.359,5.766,5.766,0,0,0-1.5-.877,4.453,4.453,0,0,0-1.585-.312h-11.8v-2.688l0-.07a1.642,1.642,0,0,0-3.284,0l0,2.758H398.2a4.427,4.427,0,0,0-1.586.312,4.582,4.582,0,0,0-1.368.783l-.1.07a4.255,4.255,0,0,0-1.083,1.208c-.121.222-.37.893-.382.923l-1.2,3.424-.2.554-.008.02a1.759,1.759,0,0,0-.094.542A1.6,1.6,0,0,0,393.776,357.275Z" transform="translate(-298.758 -343.413)" fill="url(#linear-gradient-4)"/>
            <path id="Path_243" data-name="Path 243" d="M372.11,353.275a1.639,1.639,0,0,0,3.14-.655,1.591,1.591,0,0,0-.3-.947l-3.366-6.471-.047-.1a1.75,1.75,0,0,0-.163-.28,1.637,1.637,0,0,0-2.957.974,1.582,1.582,0,0,0,.276.911Z" transform="translate(-367.583 -341.368)" fill="url(#linear-gradient-5)"/>
            <path id="Path_244" data-name="Path 244" d="M403.3,381.466H391.109a1.557,1.557,0,0,0,.751-1.258l0-.027-.008-2.708h10.364a1.6,1.6,0,0,0,.023-3.207H391.857v-2.338h7.473a4.623,4.623,0,0,0,4.426-4.893v-5.712a4.637,4.637,0,0,0-4.41-4.889h-7.488v-1.664h9.724a1.607,1.607,0,0,0,1.6-1.6,1.633,1.633,0,0,0-.058-.421h.035a1.578,1.578,0,0,0,1.566-1.574l0-.043,0-.047L404.29,347a3.576,3.576,0,0,0-1.29-2.384,5.009,5.009,0,0,0-1.566-.842,6,6,0,0,0-1.632-.172H380.325a6.027,6.027,0,0,0-1.267.172,4.871,4.871,0,0,0-1.6.869,3.533,3.533,0,0,0-1.259,2.349l-.288,2.443c-.035.413-.156,1.406-.156,1.414v.008a1.329,1.329,0,0,0-.039.334,1.544,1.544,0,0,0,1.539,1.535l.082-.008a1.766,1.766,0,0,0-.062.448,1.62,1.62,0,0,0,1.5,1.6v-.012l.043.012h9.841v1.664h-6.841c-2.774,0-5.108,2.618-5.108,5.716v4.885a4.641,4.641,0,0,0,4.4,4.893h7.546v2.338H378.2a1.6,1.6,0,0,0,.031,3.207h10.426v2.283l0,.374a1.59,1.59,0,0,0,.76,1.336H379.328c-1.442,0-3.425-1.192-3.468-2.4v-16.9a4.618,4.618,0,0,0-4.4-4.886l-1.593-.027a2.931,2.931,0,0,0-.339.035,1.928,1.928,0,0,0-.421.164,1.617,1.617,0,0,0-.031,2.887,1.728,1.728,0,0,0,.538.183,3.679,3.679,0,0,0,.417.016l1.418,0a1.483,1.483,0,0,1,1.325,1.625v17.7a1.482,1.482,0,0,1-1.329,1.621h-1.278l-.319-.008a1.641,1.641,0,0,0-.051,3.281.213.213,0,0,0,.07.008l1.578-.023a4.179,4.179,0,0,0,3.32-1.64,7.011,7.011,0,0,0,4.566,1.6H403.3a1.623,1.623,0,1,0,0-3.245ZM379.8,362.551v-.4a2.27,2.27,0,0,1,2.015-2.451h6.841v2.852Zm8.856,3.206v2.91h-7.531a1.488,1.488,0,0,1-1.325-1.632v-1.278Zm3.2-17.455,0-.035a1.608,1.608,0,0,0-1.118-1.422H399.9a1.617,1.617,0,0,1,1.056.405,1.771,1.771,0,0,1,.378,1.04l.261,2.883a1.6,1.6,0,0,0,.047.39c-.07,0-.156,0-.207,0h-9.576v-3.109Zm-3.2.07v3.2h-9.615l-.159,0-.11,0,.382-3.266a1.76,1.76,0,0,1,.417-1.075h.008a1.554,1.554,0,0,1,1.013-.382h9.187A1.616,1.616,0,0,0,388.658,348.373Zm11.992,14.178h-8.793V359.7h7.476a1.48,1.48,0,0,1,1.317,1.625Zm-8.793,3.206h8.793v1.278a1.481,1.481,0,0,1-1.32,1.632h-7.473ZM369.864,384.61Z" transform="translate(-368.2 -342.961)" fill="url(#linear-gradient-6)"/>
          </g>
          <g id="Group_218" data-name="Group 218">
            <g id="Group_217" data-name="Group 217" transform="translate(20.754 102.53)">
              <path id="Path_245" data-name="Path 245" d="M372.586,362.635l-.02,0c-.066-.031-.155-.066-.265-.117-1.511-.628-2.279-1.3-2.279-1.991a1.267,1.267,0,0,1,.479-1.044,2.18,2.18,0,0,1,1.364-.4,2.233,2.233,0,0,1,1.079.257,2.73,2.73,0,0,1,.869.834l.074.1,2.041-.951-.058-.145a3.163,3.163,0,0,0-1.516-1.64,5.772,5.772,0,0,0-2.669-.557,4.809,4.809,0,0,0-3.152,1,3.278,3.278,0,0,0-1.22,2.642,3,3,0,0,0,.811,2.131,10.1,10.1,0,0,0,3.147,1.9c.1.043.238.1.437.191,1.294.553,1.948,1.181,1.948,1.843a1.553,1.553,0,0,1-.542,1.258,2.253,2.253,0,0,1-1.508.475,3.108,3.108,0,0,1-1.68-.417,2.141,2.141,0,0,1-.884-1.219l-.047-.16-2.1.888.035.132a3.611,3.611,0,0,0,1.562,2.225,5.421,5.421,0,0,0,3.02.776,5.258,5.258,0,0,0,3.491-1.1,3.748,3.748,0,0,0,1.309-3,3.045,3.045,0,0,0-.814-2.174A8.574,8.574,0,0,0,372.586,362.635Z" transform="translate(-366.894 -356.335)" fill="url(#linear-gradient-7)"/>
              <path id="Path_246" data-name="Path 246" d="M375.619,358.137a4.214,4.214,0,0,0-1.98.444,2.816,2.816,0,0,0-.935.776v-.939h-2.392V370.85H372.7v-4.671a3.62,3.62,0,0,0,1.075.771,4.536,4.536,0,0,0,4.908-.88,4.789,4.789,0,0,0,1.15-3.382,4.678,4.678,0,0,0-1.164-3.3A4.011,4.011,0,0,0,375.619,358.137Zm1.734,4.606a2.756,2.756,0,0,1-.608,1.912,2.184,2.184,0,0,1-1.706.666,2.254,2.254,0,0,1-1.734-.713,2.781,2.781,0,0,1-.666-1.94,2.677,2.677,0,0,1,.619-1.878,2.263,2.263,0,0,1,1.726-.662,2.22,2.22,0,0,1,1.738.689A2.746,2.746,0,0,1,377.353,362.743Z" transform="translate(-356.995 -353.002)" fill="url(#linear-gradient-8)"/>
              <path id="Path_247" data-name="Path 247" d="M382.35,359.478a5.121,5.121,0,0,0-1.671-1,5.911,5.911,0,0,0-3.947,0,5.006,5.006,0,0,0-1.656.982,4.441,4.441,0,0,0-1.126,1.473,4.214,4.214,0,0,0,0,3.546,4.648,4.648,0,0,0,1.13,1.492,5.042,5.042,0,0,0,1.664,1,5.7,5.7,0,0,0,3.919,0,5.363,5.363,0,0,0,1.707-1.013,4.385,4.385,0,0,0,1.122-1.476,4.16,4.16,0,0,0,.382-1.773,4.218,4.218,0,0,0-.385-1.753A4.808,4.808,0,0,0,382.35,359.478Zm-.99,3.245a2.437,2.437,0,0,1-.771,1.832,2.717,2.717,0,0,1-3.752,0,2.569,2.569,0,0,1,0-3.659,2.717,2.717,0,0,1,3.76,0A2.463,2.463,0,0,1,381.36,362.723Z" transform="translate(-347.598 -353.002)" fill="url(#linear-gradient-9)"/>
              <path id="Path_248" data-name="Path 248" d="M382.563,358.231a3.852,3.852,0,0,0-.9-.094,2.453,2.453,0,0,0-1.457.417,2.689,2.689,0,0,0-.635.686V358.4h-2.4v8.575h2.4V363.2a5.118,5.118,0,0,1,.429-2.439,1.438,1.438,0,0,1,1.348-.678,2.263,2.263,0,0,1,.659.086,1.626,1.626,0,0,1,.53.23l.152.1.825-1.769.066-.14-.144-.07A4.765,4.765,0,0,0,382.563,358.231Z" transform="translate(-337.123 -353.002)" fill="url(#linear-gradient-10)"/>
              <path id="Path_249" data-name="Path 249" d="M383.463,357.409H381.07v3.116h-1.587V362.5h1.587v6.586h2.394V362.5h1.592v-1.975h-1.592Z" transform="translate(-330.436 -355.11)" fill="url(#linear-gradient-11)"/>
              <path id="Path_250" data-name="Path 250" d="M388.923,356.866c-.246-.023-.484-.047-.709-.047a3.274,3.274,0,0,0-2.443.834,3.55,3.55,0,0,0-.795,2.54v2.041h-1.594v1.975h1.594v6.584h2.392V364.21h2.181v-1.975h-2.181v-1.808a2.226,2.226,0,0,1,.292-1.309,1.173,1.173,0,0,1,.951-.351,1.456,1.456,0,0,1,.471.07,1.876,1.876,0,0,1,.467.171l.23.117v-2.08l-.113-.031A7.434,7.434,0,0,0,388.923,356.866Z" transform="translate(-319.144 -356.819)" fill="url(#linear-gradient-12)"/>
              <path id="Path_251" data-name="Path 251" d="M392.33,363.009a2.14,2.14,0,0,1-.506,1.605,3.1,3.1,0,0,1-3.323,0,2.153,2.153,0,0,1-.491-1.605v-4.8h-2.4v4.242A4.938,4.938,0,0,0,386.7,366a4.775,4.775,0,0,0,3.483,1.111,4.7,4.7,0,0,0,3.448-1.118,4.976,4.976,0,0,0,1.083-3.538v-4.242H392.33Z" transform="translate(-312.694 -352.794)" fill="url(#linear-gradient-13)"/>
              <path id="Path_252" data-name="Path 252" d="M394.34,358.231a3.874,3.874,0,0,0-.9-.094,2.46,2.46,0,0,0-1.462.417,2.5,2.5,0,0,0-.631.686V358.4h-2.392v8.575h2.392V363.2a5.125,5.125,0,0,1,.428-2.439,1.443,1.443,0,0,1,1.348-.678,2.215,2.215,0,0,1,.655.086,1.6,1.6,0,0,1,.534.23l.152.1.861-1.835.035-.074-.152-.07A5.044,5.044,0,0,0,394.34,358.231Z" transform="translate(-303.004 -353.002)" fill="url(#linear-gradient-14)"/>
              <path id="Path_253" data-name="Path 253" d="M399.773,359.357a2.7,2.7,0,0,0-1.188-.916,4.715,4.715,0,0,0-1.789-.3,4.979,4.979,0,0,0-2.112.405,3.817,3.817,0,0,0-1.242.927v-1.052h-2.264v8.56h2.388v-3.916a8.7,8.7,0,0,1,.09-1.457,1.662,1.662,0,0,1,.292-.694,1.973,1.973,0,0,1,.83-.627,3.13,3.13,0,0,1,1.239-.238,1.752,1.752,0,0,1,1.418.483,3.55,3.55,0,0,1,.4,2.057v4.391h2.408v-5.159a7.534,7.534,0,0,0-.11-1.609A2.341,2.341,0,0,0,399.773,359.357Z" transform="translate(-296.566 -353.002)" fill="url(#linear-gradient-15)"/>
              <path id="Path_254" data-name="Path 254" d="M395.927,356.994a1.479,1.479,0,0,0-1.028.39,1.228,1.228,0,0,0-.44.947,1.252,1.252,0,0,0,.436.954,1.537,1.537,0,0,0,1.032.394,1.483,1.483,0,0,0,1.025-.386,1.265,1.265,0,0,0,.425-.962,1.241,1.241,0,0,0-.421-.958A1.49,1.49,0,0,0,395.927,356.994Z" transform="translate(-287.067 -356.312)" fill="url(#linear-gradient-16)"/>
              <rect id="Rectangle_60" data-name="Rectangle 60" width="2.389" height="8.56" transform="translate(107.671 5.416)" fill="url(#linear-gradient-17)"/>
              <path id="Path_255" data-name="Path 255" d="M399.894,357.409H397.5v3.116h-1.593V362.5H397.5v6.586h2.391V362.5h1.587v-1.975h-1.587Z" transform="translate(-282.86 -355.11)" fill="url(#linear-gradient-18)"/>
              <path id="Path_256" data-name="Path 256" d="M404.784,363.009a2.155,2.155,0,0,1-.495,1.605,3.108,3.108,0,0,1-3.328,0,2.18,2.18,0,0,1-.494-1.605v-4.8h-2.4v4.242A4.893,4.893,0,0,0,399.166,366a4.743,4.743,0,0,0,3.479,1.111,4.68,4.68,0,0,0,3.444-1.118,4.956,4.956,0,0,0,1.091-3.538v-4.242h-2.4Z" transform="translate(-276.604 -352.794)" fill="url(#linear-gradient-19)"/>
              <path id="Path_257" data-name="Path 257" d="M406.8,358.231a3.94,3.94,0,0,0-.9-.094,2.42,2.42,0,0,0-1.457.417,2.554,2.554,0,0,0-.631.686V358.4h-2.392v8.575h2.392V363.2a5.079,5.079,0,0,1,.425-2.439,1.442,1.442,0,0,1,1.348-.678,2.321,2.321,0,0,1,.659.086,1.759,1.759,0,0,1,.533.23l.152.1.856-1.835.031-.074-.144-.07A5.082,5.082,0,0,0,406.8,358.231Z" transform="translate(-266.911 -353.002)" fill="url(#linear-gradient-20)"/>
              <path id="Path_258" data-name="Path 258" d="M413.191,362.614a4.289,4.289,0,0,0-1.273-3.3,5.676,5.676,0,0,0-7.064.106,4.316,4.316,0,0,0-1.387,3.3,4.365,4.365,0,0,0,1.344,3.335,5.017,5.017,0,0,0,3.581,1.258,5.633,5.633,0,0,0,2.731-.635,5.2,5.2,0,0,0,1.952-1.9l.093-.148-1.909-.958-.133-.062-.074.116a2.791,2.791,0,0,1-2.708,1.547,2.387,2.387,0,0,1-1.7-.6,2.444,2.444,0,0,1-.693-1.542h7.238Zm-7.063-1.063a2.229,2.229,0,0,1,.748-1.083,2.653,2.653,0,0,1,1.554-.421,2.614,2.614,0,0,1,1.609.44,1.71,1.71,0,0,1,.654,1.064Z" transform="translate(-260.977 -353.002)" fill="url(#linear-gradient-21)"/>
            </g>
            <path id="Path_259" data-name="Path 259" d="M584.274,369.531,483.565,330.718a3.076,3.076,0,0,0-2.053-.074L363.694,368.408a3.07,3.07,0,0,0-2.127,2.918V390.32a3.066,3.066,0,0,0,6.133,0V373.575l114.657-36.76L580.1,374.494v65.6H544.141a3.066,3.066,0,1,0,0,6.132h39.031a3.067,3.067,0,0,0,3.062-3.07V372.39A3.087,3.087,0,0,0,584.274,369.531Z" transform="translate(-361.567 -330.503)" fill="url(#linear-gradient-22)"/>
          </g>
        </g>
      </g>
    </g>
  </g>
</svg>
