<svg xmlns="http://www.w3.org/2000/svg" xmlns:xlink="http://www.w3.org/1999/xlink" width="240" height="240" viewBox="0 0 240 240">
  <defs>
    <linearGradient id="linear-gradient" x1="0.513" y1="-0.041" x2="0.489" y2="1.036" gradientUnits="objectBoundingBox">
      <stop offset="0" stop-color="#fff"/>
      <stop offset="0.357" stop-color="#a6a7a7"/>
      <stop offset="0.74" stop-color="#5f5e5e"/>
    </linearGradient>
    <linearGradient id="linear-gradient-2" x1="0.242" y1="2.007" x2="0.574" y2="-0.011" gradientUnits="objectBoundingBox">
      <stop offset="0.139" stop-color="#fff"/>
      <stop offset="0.38" stop-color="#a6a7a7"/>
      <stop offset="0.476" stop-color="#9c9d9d"/>
      <stop offset="0.635" stop-color="#848484"/>
      <stop offset="0.827" stop-color="#5f5e5e"/>
    </linearGradient>
    <linearGradient id="linear-gradient-3" x1="0.5" y1="-0.44" x2="0.5" y2="0.937" gradientUnits="objectBoundingBox">
      <stop offset="0" stop-color="#a6a7a7"/>
      <stop offset="0.178" stop-color="#9c9d9d"/>
      <stop offset="0.472" stop-color="#848484"/>
      <stop offset="0.827" stop-color="#5f5e5e"/>
    </linearGradient>
    <linearGradient id="linear-gradient-4" x1="0.5" y1="-0.45" x2="0.5" y2="0.937" xlink:href="#linear-gradient-3"/>
    <clipPath id="clip-M1_SVG_bgreen">
      <rect width="240" height="240"/>
    </clipPath>
  </defs>
  <g id="M1_SVG_bgreen" clip-path="url(#clip-M1_SVG_bgreen)">
    <rect width="240" height="240" fill="#fff"/>
    <g id="Group_1" data-name="Group 1" transform="translate(5 70)">
      <g id="Group_14" data-name="Group 14" transform="translate(0 20.197)" opacity="0.3">
        <g id="Group_13" data-name="Group 13" transform="translate(0)">
          <path id="Path_15" data-name="Path 15" d="M54.107,97.33a1.1,1.1,0,0,0,.084.191,5.213,5.213,0,0,1-.214-.891A2.944,2.944,0,0,0,54.107,97.33Z" transform="translate(-32.74 -59.033)" fill="#4b4b4b"/>
          <path id="Path_16" data-name="Path 16" d="M72.174,61.129a9.085,9.085,0,0,0-2.519-6.634q-2.52-2.583-7.559-2.646a15.341,15.341,0,0,0-5.312.987,15.824,15.824,0,0,0-5.066,3.131A43.994,43.994,0,0,1,58.163,45.8a10.182,10.182,0,0,1,6.824-3.653c.943,0,1.779.019,2.517.06a4.911,4.911,0,0,1,2,.521A4.667,4.667,0,0,1,71.1,44.176a9.8,9.8,0,0,1,1.259,2.7l1.9-4.911a8.477,8.477,0,0,0-2.76-1.69,21.552,21.552,0,0,0-3.444-1.015,23.34,23.34,0,0,0-3.467-.455c-1.129-.066-2.1-.094-2.927-.094a37.383,37.383,0,0,0-7.491.858,32.53,32.53,0,0,0-6.722,2.243,22.079,22.079,0,0,0-5.5,3.594,16.977,16.977,0,0,0-3.811,4.912L25.3,75.32c-.41.821-.87,1.657-1.384,2.516a41.933,41.933,0,0,1-2.659,3.675H38.219L40.107,78.2a10.7,10.7,0,0,0,1.073,1.168,6.6,6.6,0,0,0,1.659,1.108,9.716,9.716,0,0,0,2.521.766,17.523,17.523,0,0,0,3.649.214,29.883,29.883,0,0,0,8.513-1.595,24.389,24.389,0,0,0,7.4-4,19.916,19.916,0,0,0,5.255-6.29A17.6,17.6,0,0,0,72.174,61.129ZM53.481,69.718c-2.811,5.78-7.042,9.782-9.448,8.943A2.211,2.211,0,0,1,42.71,77.2a1.11,1.11,0,0,1-.084-.191,2.949,2.949,0,0,1-.13-.7c-.349-2.282.422-5.859,2.249-9.625C47.554,60.9,51.788,56.9,54.2,57.735S56.292,63.939,53.481,69.718Z" transform="translate(-21.26 -38.708)" fill="#4b4b4b"/>
          <path id="Path_17" data-name="Path 17" d="M277.085,75.972a5.34,5.34,0,0,1-1.47,1.625,16.308,16.308,0,0,1-2.3,1.536,16.589,16.589,0,0,1-2.644,1.2,9.945,9.945,0,0,1-2.452.589,3.614,3.614,0,0,1-1.753-.218c-.452-.2-.637-.637-.554-1.29a9.751,9.751,0,0,1,.985-2.828l5.325-9.111a4.184,4.184,0,0,0,.369-2.307,5.1,5.1,0,0,0-.987-2.518,6.708,6.708,0,0,0-2.486-2.024,9.078,9.078,0,0,0-4.142-.828,25.768,25.768,0,0,0-8.082,1.2A23.913,23.913,0,0,0,250.1,64.52a5.683,5.683,0,0,0,.716-3.573,2.671,2.671,0,0,0-1.653-1.5,9.744,9.744,0,0,0-3.1-.585,23.985,23.985,0,0,0-3.838.121,31.79,31.79,0,0,0-3.9.672,21.162,21.162,0,0,0-3.2,1.017,3.819,3.819,0,0,1,.639,2.4,11.2,11.2,0,0,0-4.347-3.224,16.478,16.478,0,0,0-6.728-1.289,41.073,41.073,0,0,0-10.224,1.136,26.848,26.848,0,0,0-7.585,3.134,22.223,22.223,0,0,0-2.143,1.513,9.877,9.877,0,0,0-.6-.914,11.156,11.156,0,0,0-4.55-3.475,16.546,16.546,0,0,0-6.723-1.284c-3.89,0-16.385-.1-19.31.653a.282.282,0,0,1-.056.016c-.547.107-1.1.23-1.692.384a21.605,21.605,0,0,0-4.451,1.747c-1.494.781-3.242,1.577-3.907,3.19a4.657,4.657,0,0,0,.341-1.977c-.171-2.323-2.926-4.113-5-4.546a13.733,13.733,0,0,0-2.855-.28c-.943,0-1.893.055-2.853.15s-1.909.255-2.822.432-1.8.4-2.618.65a15.478,15.478,0,0,0-2.152.8c.006,0,.014,0,.019,0h-12.83l-.918,2.029a11.588,11.588,0,0,0-1.076-1.167,6.638,6.638,0,0,0-1.657-1.1,9.653,9.653,0,0,0-2.522-.765,16.987,16.987,0,0,0-3.654-.215,29.9,29.9,0,0,0-8.509,1.594,24.427,24.427,0,0,0-7.4,3.993,20,20,0,0,0-5.251,6.294A17.6,17.6,0,0,0,99.693,79a9.071,9.071,0,0,0,2.521,6.631q2.516,2.578,7.552,2.641a15.1,15.1,0,0,0,5.312-.987,15.712,15.712,0,0,0,5.07-3.125c-2.211,4.5-6.92,13.011-9.009,15.283A16.447,16.447,0,0,1,109.6,100.9a9.175,9.175,0,0,1-5.653,2.188,8.308,8.308,0,0,1-4.232-.611,6.876,6.876,0,0,1-2.77-4.117c-.628,1.647-1.27,3.281-1.9,4.923-.077.19.815.85.942.963,8.048,6.79,22.807,3.283,30.164-2.877,4.454-3.723,6.62-9.632,9.2-14.656q2.461-4.8,4.923-9.611,2.2-4.322,4.417-8.649c.622-1.217,1.254-2.436,1.866-3.651.412-.819.87-1.661,1.383-2.518.025-.041.034-.081.058-.121,0,.005,0,.005.005.008a.014.014,0,0,0,0,.01c.036.045.065.086.1.131a5.235,5.235,0,0,1,.656,1.409c.956,3.033,1.052,10.661-12.625,24.159,6.435-.339,13.44-2.957,17.671-6.488a26.676,26.676,0,0,0,6.246-8.635,8.965,8.965,0,0,1,1.309-1.617A12.748,12.748,0,0,1,162.724,70a5.375,5.375,0,0,1,1.656-.62,6.087,6.087,0,0,1,1.841-.086,4.983,4.983,0,0,1,1.75.525,2.7,2.7,0,0,1,.234.139,20.509,20.509,0,0,0-1.629,3.506,12.446,12.446,0,0,0-.646,5.83,8.445,8.445,0,0,0,2.306,4.7,12.792,12.792,0,0,0,5.313,3.131,26.5,26.5,0,0,0,8.324,1.137,35.851,35.851,0,0,0,6.3-.555,26.1,26.1,0,0,0,5.863-1.749,21.568,21.568,0,0,0,5.1-3.1c.018-.016.031-.036.048-.043a9.681,9.681,0,0,0,.878,1.066,12.781,12.781,0,0,0,5.313,3.142,26.639,26.639,0,0,0,8.327,1.133c.649,0,1.3-.031,1.943-.057,0,0-.012.008-.028.008h23.617l10.38-19.839a4.052,4.052,0,0,1,1.812-1.6,11.374,11.374,0,0,1,2.883-1.137,4.577,4.577,0,0,1,2.336-.067c.6.193.667.71.215,1.573l-7.047,12.369-.365.676a7.353,7.353,0,0,0-.889,2.643,3.483,3.483,0,0,0,.458,2.3,4.286,4.286,0,0,0,1.966,1.635,9.11,9.11,0,0,0,3.685.611,30.466,30.466,0,0,0,5.558-.583,39,39,0,0,0,6.237-1.752,38,38,0,0,0,5.957-2.825,19.375,19.375,0,0,0,4.73-3.81ZM127.693,73.628c-2.8,5.773-7.038,9.784-9.45,8.945s-2.1-6.205.72-11.982,7.04-9.789,9.453-8.947S130.506,67.847,127.693,73.628Zm57.651-4.189c1.952-4.021,4.6-7.184,6.844-8.453a5.018,5.018,0,0,1,.5-.253A2.845,2.845,0,0,1,194.8,60.5c2.367.817,2.1,5.97-.541,11.611H184.216A28.375,28.375,0,0,1,185.344,69.439ZM197.538,77.4a18.763,18.763,0,0,1-2.025,3.284,12.946,12.946,0,0,1-2.7,2.612,12.711,12.711,0,0,1-3.475,1.751,13.674,13.674,0,0,1-4.332.645,5.13,5.13,0,0,1-3.53-.954,3.215,3.215,0,0,1-.981-2.541,9.039,9.039,0,0,1,1.016-3.659,30.58,30.58,0,0,1,2.513-4.273h14.108a13.275,13.275,0,0,0-.472,3.156Zm19.212-7.958c2.807-5.778,7.045-9.791,9.456-8.94,2.361.817,2.1,5.97-.547,11.611H215.616C215.94,71.242,216.312,70.344,216.75,69.439Zm-3.449,15.2a3.267,3.267,0,0,1-.983-2.554,9.144,9.144,0,0,1,1.013-3.653,30.581,30.581,0,0,1,2.522-4.268h15l-2.942,5.633c-.184.266-.373.532-.573.785a13.19,13.19,0,0,1-2.7,2.609,12.9,12.9,0,0,1-3.476,1.75,13.735,13.735,0,0,1-4.326.643A5.158,5.158,0,0,1,213.3,84.634Z" transform="translate(-47.149 -45.426)" fill="#4b4b4b"/>
        </g>
      </g>
      <g id="Group_15" data-name="Group 15" transform="translate(87.846 6.573)">
        <path id="Path_18" data-name="Path 18" d="M179.178,17.719s-8.338.564-14.147,5.282c.163.524,1.107,3.234,3.095,3.46a5.9,5.9,0,0,0,6.534-4.974,17.6,17.6,0,0,1,2.127,2.739s-6.551,2.862-6.052,6.218c.173,1.153,1.56,2.94,2.115,3.745a2.452,2.452,0,0,0,1.52.824C177.962,31.811,180.481,26.5,179.178,17.719Zm-9.865,7.814a1.9,1.9,0,1,1,1.913-1.907A1.915,1.915,0,0,1,169.313,25.533Z" transform="translate(-159.554 -17.719)" fill="#8cb808"/>
        <path id="Path_19" data-name="Path 19" d="M165.283,36.528c-1.1.021-1.118.983-1.142,1.531-.044,1.1-1.354,1.481-2.018.367s.337-3.129.765-4.772c.723-2.75-1.405-4.231-2.63-5.156-2.962,3.294-4.678,8.11-3.013,15.168a24.169,24.169,0,0,0,11.723-3.071,12.281,12.281,0,0,0-1.324-2.086C166.558,37.411,165.968,36.515,165.283,36.528Z" transform="translate(-156.593 -21.501)" fill="#8cb808"/>
      </g>
      <g id="Group_16" data-name="Group 16" transform="translate(50.157 0)">
        <path id="Path_20" data-name="Path 20" d="M111.391,30.6c.674-1.3,2.4-4.252,2.435-6.019.113-5.12-10.188-8.194-10.188-8.194a26.3,26.3,0,0,1,2.633-4.5c.807,2.526,4.087,7.848,10.686,6.227,2.9-.717,3.8-4.9,3.951-5.763C110.817,6.229,98.53,7.764,98.53,7.764c.167,12.871,4.87,20.211,10.788,24.343A3.552,3.552,0,0,0,111.391,30.6Zm2.9-19.362a2.877,2.877,0,1,1-2.495,3.215A2.878,2.878,0,0,1,114.3,11.234Z" transform="translate(-98.53 -7.592)" fill="#3d9e26"/>
        <path id="Path_21" data-name="Path 21" d="M141.8,40.5c-.568-11.022-4.654-17.924-9.859-22.219-1.632,1.614-4.594,4.248-2.976,8.279.955,2.373,2.834,5.216,2.056,7.012s-2.812,1.464-3.084-.166c-.137-.824-.35-2.261-1.991-2.091-1.019.116-1.735,1.577-3.144,3.42a19.577,19.577,0,0,0-1.571,3.37C130.922,42.509,141.8,40.5,141.8,40.5Z" transform="translate(-106.497 -11.342)" fill="#3d9e26"/>
      </g>
      <g id="Group_17" data-name="Group 17" transform="translate(0 18.906)">
        <path id="Path_22" data-name="Path 22" d="M54.107,95.343a1.076,1.076,0,0,0,.084.191,5.185,5.185,0,0,1-.214-.891A2.952,2.952,0,0,0,54.107,95.343Z" transform="translate(-32.74 -57.044)" fill="none"/>
        <path id="Path_23" data-name="Path 23" d="M72.174,59.14a9.086,9.086,0,0,0-2.519-6.634q-2.52-2.582-7.559-2.646a15.34,15.34,0,0,0-5.312.986,15.805,15.805,0,0,0-5.066,3.132,43.977,43.977,0,0,1,6.444-10.164,10.171,10.171,0,0,1,6.824-3.653c.943,0,1.779.018,2.517.058a4.912,4.912,0,0,1,2,.521A4.693,4.693,0,0,1,71.1,42.186a9.82,9.82,0,0,1,1.259,2.7l1.9-4.911a8.456,8.456,0,0,0-2.76-1.69,21.493,21.493,0,0,0-3.444-1.015,23.272,23.272,0,0,0-3.467-.456c-1.129-.066-2.1-.095-2.927-.095a37.432,37.432,0,0,0-7.491.859,32.527,32.527,0,0,0-6.722,2.242,22.115,22.115,0,0,0-5.5,3.594,16.99,16.99,0,0,0-3.811,4.912l-12.834,25q-.615,1.231-1.384,2.516a41.951,41.951,0,0,1-2.659,3.677H38.219l1.888-3.309a10.7,10.7,0,0,0,1.073,1.169,6.655,6.655,0,0,0,1.659,1.108,9.744,9.744,0,0,0,2.521.765,17.57,17.57,0,0,0,3.649.214,29.861,29.861,0,0,0,8.513-1.6,24.4,24.4,0,0,0,7.4-4,19.943,19.943,0,0,0,5.255-6.292A17.6,17.6,0,0,0,72.174,59.14ZM53.481,67.73c-2.811,5.78-7.042,9.783-9.448,8.944a2.216,2.216,0,0,1-1.322-1.466,1.078,1.078,0,0,1-.084-.191,2.954,2.954,0,0,1-.13-.7c-.349-2.282.422-5.858,2.249-9.625,2.807-5.776,7.042-9.781,9.456-8.947S56.292,61.951,53.481,67.73Z" transform="translate(-21.26 -36.719)" fill="url(#linear-gradient)"/>
        <path id="Path_24" data-name="Path 24" d="M277.085,73.985a5.352,5.352,0,0,1-1.47,1.623,16.142,16.142,0,0,1-2.3,1.536,16.717,16.717,0,0,1-2.644,1.2,9.967,9.967,0,0,1-2.452.589,3.6,3.6,0,0,1-1.753-.217c-.452-.2-.637-.638-.554-1.29a9.747,9.747,0,0,1,.985-2.829l5.325-9.111a4.183,4.183,0,0,0,.369-2.307,5.1,5.1,0,0,0-.987-2.518,6.712,6.712,0,0,0-2.486-2.023,9.068,9.068,0,0,0-4.142-.828,25.748,25.748,0,0,0-8.082,1.2,23.861,23.861,0,0,0-6.786,3.524,5.681,5.681,0,0,0,.716-3.572,2.666,2.666,0,0,0-1.653-1.5,9.706,9.706,0,0,0-3.1-.586,23.836,23.836,0,0,0-3.838.121,31.664,31.664,0,0,0-3.9.673,21.174,21.174,0,0,0-3.2,1.016,3.817,3.817,0,0,1,.639,2.4,11.188,11.188,0,0,0-4.347-3.222,16.465,16.465,0,0,0-6.728-1.291A41.072,41.072,0,0,0,214.47,57.7a26.886,26.886,0,0,0-7.585,3.133,22.1,22.1,0,0,0-2.143,1.513,9.769,9.769,0,0,0-.6-.913,11.154,11.154,0,0,0-4.55-3.477,16.557,16.557,0,0,0-6.723-1.283c-3.89,0-16.385-.1-19.31.654a.4.4,0,0,1-.056.016c-.547.107-1.1.23-1.692.384a21.567,21.567,0,0,0-4.451,1.747c-1.494.781-3.242,1.577-3.907,3.191a4.658,4.658,0,0,0,.341-1.978c-.171-2.321-2.926-4.112-5-4.544a13.69,13.69,0,0,0-2.855-.28c-.943,0-1.893.055-2.853.15s-1.909.255-2.822.432-1.8.4-2.618.65a15.31,15.31,0,0,0-2.152.8l.019,0h-12.83l-.918,2.029a11.518,11.518,0,0,0-1.076-1.168,6.654,6.654,0,0,0-1.657-1.1,9.676,9.676,0,0,0-2.522-.765,16.988,16.988,0,0,0-3.654-.214,29.849,29.849,0,0,0-8.509,1.594,24.411,24.411,0,0,0-7.4,3.993,20,20,0,0,0-5.251,6.294,17.606,17.606,0,0,0-1.995,8.451,9.072,9.072,0,0,0,2.521,6.631q2.516,2.577,7.552,2.641a15.088,15.088,0,0,0,5.312-.987,15.717,15.717,0,0,0,5.07-3.124c-2.211,4.5-6.92,13.01-9.009,15.284a16.576,16.576,0,0,1-1.538,1.461,9.179,9.179,0,0,1-5.653,2.188,8.329,8.329,0,0,1-4.232-.61,6.88,6.88,0,0,1-2.77-4.119c-.628,1.648-1.27,3.282-1.9,4.924-.077.191.815.852.942.963,8.048,6.792,22.807,3.284,30.164-2.876,4.454-3.722,6.62-9.632,9.2-14.656q2.461-4.8,4.923-9.611,2.2-4.322,4.417-8.649c.622-1.218,1.254-2.435,1.866-3.651.412-.819.87-1.662,1.383-2.518.025-.042.034-.081.058-.121,0,.005,0,.005.005.006a.017.017,0,0,0,0,.011c.036.045.065.086.1.131a5.232,5.232,0,0,1,.656,1.407c.956,3.034,1.052,10.662-12.625,24.16,6.435-.34,13.44-2.957,17.671-6.489a26.669,26.669,0,0,0,6.246-8.634,8.985,8.985,0,0,1,1.309-1.617,12.933,12.933,0,0,1,1.357-1.139,5.408,5.408,0,0,1,1.656-.619,6.087,6.087,0,0,1,1.841-.086,4.955,4.955,0,0,1,1.75.525,2.671,2.671,0,0,1,.234.139,20.464,20.464,0,0,0-1.629,3.506,12.44,12.44,0,0,0-.646,5.829,8.446,8.446,0,0,0,2.306,4.7,12.793,12.793,0,0,0,5.313,3.131,26.483,26.483,0,0,0,8.324,1.137,35.851,35.851,0,0,0,6.3-.556,26.075,26.075,0,0,0,5.863-1.748,21.55,21.55,0,0,0,5.1-3.1.234.234,0,0,1,.048-.043,9.684,9.684,0,0,0,.878,1.065,12.8,12.8,0,0,0,5.313,3.143,26.659,26.659,0,0,0,8.327,1.133c.649,0,1.3-.031,1.943-.058,0,.005-.012.009-.028.009h23.617l10.38-19.839a4.057,4.057,0,0,1,1.812-1.6,11.4,11.4,0,0,1,2.883-1.137,4.581,4.581,0,0,1,2.336-.065c.6.192.667.71.215,1.571l-7.047,12.37-.365.676a7.344,7.344,0,0,0-.889,2.643,3.484,3.484,0,0,0,.458,2.3,4.272,4.272,0,0,0,1.966,1.634,9.1,9.1,0,0,0,3.685.612,30.581,30.581,0,0,0,5.558-.584,39,39,0,0,0,6.237-1.752,38.051,38.051,0,0,0,5.957-2.825,19.38,19.38,0,0,0,4.73-3.81ZM127.693,71.641c-2.8,5.772-7.038,9.784-9.45,8.945s-2.1-6.206.72-11.982,7.04-9.79,9.453-8.947S130.506,65.858,127.693,71.641Zm57.651-4.191c1.952-4.019,4.6-7.183,6.844-8.452a5.143,5.143,0,0,1,.5-.252,2.848,2.848,0,0,1,2.109-.236c2.367.817,2.1,5.97-.541,11.612H184.216A28.464,28.464,0,0,1,185.344,67.45Zm12.194,7.959a18.771,18.771,0,0,1-2.025,3.282,12.932,12.932,0,0,1-2.7,2.613,12.745,12.745,0,0,1-3.475,1.751A13.693,13.693,0,0,1,185,83.7a5.139,5.139,0,0,1-3.53-.954,3.22,3.22,0,0,1-.981-2.541,9.044,9.044,0,0,1,1.016-3.66,30.5,30.5,0,0,1,2.513-4.271h14.108a13.263,13.263,0,0,0-.472,3.154ZM216.75,67.45c2.807-5.778,7.045-9.789,9.456-8.94,2.361.817,2.1,5.97-.547,11.612H215.616C215.94,69.255,216.312,68.357,216.75,67.45Zm-3.449,15.2a3.263,3.263,0,0,1-.983-2.553,9.139,9.139,0,0,1,1.013-3.652,30.47,30.47,0,0,1,2.522-4.268h15l-2.942,5.634c-.184.265-.373.531-.573.784a13.164,13.164,0,0,1-2.7,2.609,12.859,12.859,0,0,1-3.476,1.751,13.735,13.735,0,0,1-4.326.643A5.151,5.151,0,0,1,213.3,82.646Z" transform="translate(-47.149 -43.438)" fill="url(#linear-gradient-2)"/>
      </g>
      <path id="Path_25" data-name="Path 25" d="M211.508,121.765c0,.562-.324.854-.912.854h-10.9a.831.831,0,0,1-.92-.917c0-.489.329-.758.92-.758h4.2v-2.268a.832.832,0,0,1,.921-.917h.916a.834.834,0,0,1,.925.917v2.268H210.6C211.184,120.944,211.508,121.24,211.508,121.765Zm-12.343,21.081a32.434,32.434,0,0,0,1.871-6.305.774.774,0,0,1,1.118-.658l.59.2a.9.9,0,0,1,.655,1.121,36.677,36.677,0,0,1-2.063,6.563.791.791,0,0,1-1.253.425l-.454-.257C199.131,143.63,198.972,143.271,199.165,142.846Zm1.743-9.063a.834.834,0,0,1-.923-.915v-6.795a.837.837,0,0,1,.923-.927h8.766a.835.835,0,0,1,.922.927v6.795a.832.832,0,0,1-.922.915h-2.918v8.929c0,3.416-.2,3.812-2.435,3.812-.395,0-1.018-.037-1.84-.1a.94.94,0,0,1-.915-.951c-.034-.594.258-.889.824-.855a4.06,4.06,0,0,0,.785.065c1.081,0,.847-.987.847-1.87v-9.031Zm1.836-1.511H207.9v-5.65h-5.158Zm5.777,8.174c-.359-1.149-.755-2.269-1.112-3.185a.891.891,0,0,1,.426-1.211l.393-.2a.814.814,0,0,1,1.25.428,33.555,33.555,0,0,1,1.248,3.417.9.9,0,0,1-.5,1.176l-.458.268C209.179,141.435,208.725,141.2,208.521,140.446Zm2.464-15.528a.834.834,0,0,1,.924-.919H214.5v-4.99a.828.828,0,0,1,.92-.919h.853a.832.832,0,0,1,.921.919V124h6.1a.92.92,0,1,1,0,1.84h-6.135c-.2,8.962-2.529,15.925-7.027,20.391a.8.8,0,0,1-1.309-.071l-.3-.367a.9.9,0,0,1,.034-1.276c3.775-4.07,5.814-10.406,5.945-18.677h-2.591A.834.834,0,0,1,210.985,124.918Zm9.358,19.405c.689,0,1.011-.262,1.245-1.317a49.063,49.063,0,0,0,.328-6.561c0-.657.366-.989.986-.891l.691.1a.894.894,0,0,1,.852,1.016c-.1,4.528-.3,7.124-.626,8.076-.227.725-1.538,1.35-3.477,1.35-2.69,0-3.149-.327-3.149-2.728V131.52a.833.833,0,0,1,.92-.924h.55a.837.837,0,0,1,.926.924v11.293C219.591,144.422,219.456,144.323,220.343,144.323Zm.493-22.426c-.692-1.215-1.279-2.229-1.806-3.055a.883.883,0,0,1,.229-1.283l.362-.293a.8.8,0,0,1,1.281.232c.685,1.084,1.379,2.23,2.068,3.383a.884.884,0,0,1-.267,1.281l-.389.322C221.819,122.881,221.263,122.682,220.837,121.9Z" transform="translate(-83.548 -45.997)" fill="url(#linear-gradient-3)"/>
      <path id="Path_26" data-name="Path 26" d="M260.79,141.542a25.067,25.067,0,0,1-2.465,4.654.779.779,0,0,1-1.276.2l-.461-.382a.885.885,0,0,1-.2-1.316,29.957,29.957,0,0,0,3.319-8.721.832.832,0,0,1,1.079-.765l.819.171a.875.875,0,0,1,.725,1.148c-.162.73-.394,1.595-.686,2.573a8.962,8.962,0,0,0,5.447,4.167v-9.8H256.848a.85.85,0,0,1-.916-.967c0-.525.327-.8.916-.8h22.659a.853.853,0,0,1,.916.97c0,.521-.324.8-.916.8h-9.555v4.068h7.615a.856.856,0,0,1,.921.975c0,.488-.328.763-.921.763h-7.615v4.591a61.622,61.622,0,0,0,8.438.448h1.148c.618,0,.918.352.885,1.013a.8.8,0,0,1-.916.834h-1.117C268.407,146.163,263.68,144.914,260.79,141.542Zm17.272-23.226v9.773a.857.857,0,0,1-.923.971H259.214a.856.856,0,0,1-.92-.971v-9.773a.856.856,0,0,1,.92-.969h17.925A.857.857,0,0,1,278.062,118.316Zm-16.913,4.07H275.2v-3.408H261.149Zm0,5.073H275.2v-3.575H261.149Z" transform="translate(-103.604 -46.104)" fill="url(#linear-gradient-4)"/>
      <g id="Group_18" data-name="Group 18" transform="translate(187.267 70.914)">
        <path id="Path_27" data-name="Path 27" d="M325.155,150.309c-.141-1.379-.322-2.789-.566-4.3-.068-.625-.493-.887-1.137-.761l-.493.1c-.635.1-.918.465-.818,1.053.182,1.346.354,2.7.5,4.145a.847.847,0,0,0,1.1.855l.533-.064C324.909,151.233,325.228,150.905,325.155,150.309Z" transform="translate(-314.097 -126.798)" fill="#3d9e26"/>
        <path id="Path_28" data-name="Path 28" d="M312.681,145.685l-.6-.064a.852.852,0,0,0-1.069.852,51.612,51.612,0,0,1-.989,6.909.84.84,0,0,0,.78,1.077l.533.132a.909.909,0,0,0,1.2-.717,58.13,58.13,0,0,0,1.029-7.234C313.6,146.083,313.321,145.752,312.681,145.685Z" transform="translate(-309.843 -126.936)" fill="#3d9e26"/>
        <path id="Path_29" data-name="Path 29" d="M319.467,133.787c.109.457.5.623,1.136.489l.568-.13c.64-.164.888-.523.748-1.117-.5-2.1-.994-4.076-1.316-5.158a.845.845,0,0,0-1.2-.63l-.5.138c-.642.164-.851.56-.671,1.121.248.851.491,1.9.74,3.055l-3.862.23a90.315,90.315,0,0,0,5.211-9.107.868.868,0,0,0-.425-1.251l-.462-.293a.857.857,0,0,0-1.347.394c-1.026,2.036-2.058,3.978-3.115,5.783,0-.034-.783-1.475-1.067-1.967,1.1-2.174,2.087-4.179,2.942-6.088a.844.844,0,0,0-.455-1.211l-.612-.295a.852.852,0,0,0-1.307.458c-.673,1.677-1.342,3.154-1.982,4.5l-.428-.793a.734.734,0,0,0-1.383,0l-.425.694a1.085,1.085,0,0,0-.034,1.256c.993,1.806,2.126,3.776,3.258,5.974l-1.3,2.139-1.458.1c-.637.034-.99.33-.957.818.031.591.39.889,1.026.859l3.475-.237v12.3a.863.863,0,0,0,.986.916h.966a.864.864,0,0,0,.989-.916V133.291l2.122-.166Z" transform="translate(-309.759 -117.108)" fill="#3d9e26"/>
        <path id="Path_30" data-name="Path 30" d="M332,144.336l.526-.356a.9.9,0,0,0,.353-1.249c-.318-.628-.708-1.48-1.38-2.9a.9.9,0,0,0-1.383-.428l-.5.265a.861.861,0,0,0-.425,1.247c.819,1.779,1.276,2.764,1.662,3.549C330.994,144.8,331.421,144.734,332,144.336Z" transform="translate(-316.535 -124.7)" fill="#3d9e26"/>
        <path id="Path_31" data-name="Path 31" d="M342.709,143.347a29.915,29.915,0,0,1-3.79-5.191,28.738,28.738,0,0,0,3.153-4.243.9.9,0,0,0-.172-1.249l-.43-.4a.8.8,0,0,0-1.379.2,23.5,23.5,0,0,1-2.336,3.453,39.64,39.64,0,0,1-1.742-4.6V130.7h5.922c.636,0,.987-.265.987-.762,0-.588-.35-.914-.987-.914H339.9a.211.211,0,0,1-.029-.137q1.147-4.272,2.079-8.9c.113-.571-.552-.894-1.064-.967-.152-.017-.691-.071-.806.035-.021.025-5.345.034-5.345.034a.182.182,0,0,1-.153-.083.148.148,0,0,1-.02-.144l.246-.8a.876.876,0,0,0-.105-.787.965.965,0,0,0-.724-.432h-.211a1.456,1.456,0,0,0-.724.193,1.4,1.4,0,0,0-.589.7q-1.561,4.914-3.223,8.8a.839.839,0,0,0,.055.785.909.909,0,0,0,.679.435,1.7,1.7,0,0,0,1.005-.168,1.47,1.47,0,0,0,.65-.727c.028-.064.06-.137.1-.23a.225.225,0,0,1,.247-.156h5.968c.155,0,.228.071.209.225-.024.025-.209.751-.558,2.186a.293.293,0,0,1-.106.137h-8.948c-.636,0-.99.26-.99.749a.87.87,0,0,0,.99.927h4.5v4.759a46.641,46.641,0,0,1-6.836,7.007.826.826,0,0,0-.175,1.281l.175.233a.858.858,0,0,0,1.383.161,50.27,50.27,0,0,0,5.453-5.325v3.152c0,2.241-.172,2.439-.81,2.439-.321,0-.924-.039-1.63-.1s-1.1.166-1.066.654a.985.985,0,0,0,.994.957c.85.058,1.6.094,2.052.094,3.083,0,3.438-.588,3.438-4.21v-4.136a27.629,27.629,0,0,0,5.037,7.461.848.848,0,0,0,1.416-.066l.314-.4A.907.907,0,0,0,342.709,143.347Zm-9.977-18.706a.182.182,0,0,1-.136-.082c-.048-.049-.064-.1-.034-.138.5-1.4.9-2.485,1.172-3.277a.361.361,0,0,1,.351-.227h5.092c.165,0,.234.077.215.227q-.282,1.412-.727,3.24a.275.275,0,0,1-.312.257Z" transform="translate(-315.386 -116.841)" fill="#3d9e26"/>
        <path id="Path_32" data-name="Path 32" d="M333.769,129.7a1.072,1.072,0,0,0,1.147.981h2.266a1.078,1.078,0,0,0,1.151-.981h0a1.076,1.076,0,0,0-1.151-.977h-2.266a1.07,1.07,0,0,0-1.147.977Z" transform="translate(-318.184 -121.011)" fill="#3d9e26"/>
        <path id="Path_33" data-name="Path 33" d="M337.5,129.7a1.075,1.075,0,0,0,1.148.981h2.271a1.07,1.07,0,0,0,1.144-.981h0a1.068,1.068,0,0,0-1.144-.977h-2.271a1.072,1.072,0,0,0-1.148.977Z" transform="translate(-319.492 -121.011)" fill="#3d9e26"/>
        <path id="Path_34" data-name="Path 34" d="M340.556,129.7a1.073,1.073,0,0,0,1.148.981h2.268a1.078,1.078,0,0,0,1.151-.981h0a1.076,1.076,0,0,0-1.151-.977H341.7a1.07,1.07,0,0,0-1.148.977Z" transform="translate(-320.565 -121.011)" fill="#3d9e26"/>
        <path id="Path_35" data-name="Path 35" d="M336.707,121.221a1.078,1.078,0,0,0,1.148.98h2.269a1.076,1.076,0,0,0,1.148-.98h0a1.076,1.076,0,0,0-1.148-.98h-2.269a1.078,1.078,0,0,0-1.148.98Z" transform="translate(-319.215 -118.034)" fill="#3d9e26"/>
        <path id="Path_36" data-name="Path 36" d="M339.6,121.221a1.07,1.07,0,0,0,1.144.98h2.268a1.077,1.077,0,0,0,1.149-.98h0a1.077,1.077,0,0,0-1.149-.98h-2.268a1.07,1.07,0,0,0-1.144.98Z" transform="translate(-320.229 -118.034)" fill="#3d9e26"/>
        <path id="Path_37" data-name="Path 37" d="M342.3,121.221a1.076,1.076,0,0,0,1.148.98h2.27a1.078,1.078,0,0,0,1.149-.98h0a1.078,1.078,0,0,0-1.149-.98h-2.27a1.076,1.076,0,0,0-1.148.98Z" transform="translate(-321.177 -118.034)" fill="#3d9e26"/>
      </g>
    </g>
  </g>
</svg>
