<svg id="圖層_1" data-name="圖層 1" xmlns="http://www.w3.org/2000/svg" xmlns:xlink="http://www.w3.org/1999/xlink" viewBox="0 0 235.77 125.97"><defs><style>.cls-1{fill:none;}.cls-2{clip-path:url(#clip-path);}.cls-3{fill:#201b1b;}.cls-4{opacity:0.2;}.cls-5{fill:#131322;}.cls-6{fill:url(#金色);}.cls-7{fill:url(#金色-2);}.cls-8{fill:url(#金色-3);}.cls-9{fill:url(#金色-4);}.cls-10{fill:url(#金色-5);}.cls-11{fill:url(#金色-6);}.cls-12{fill:url(#金色-7);}.cls-13{fill:url(#金色-8);}.cls-14{fill:url(#金色-9);}.cls-15{fill:url(#金色-10);}.cls-16{fill:url(#金色-11);}.cls-17{fill:url(#金色-12);}.cls-18{fill:url(#金色-13);}.cls-19{fill:url(#金色-14);}.cls-20{fill:url(#金色-15);}.cls-21{fill:url(#金色-16);}.cls-22{fill:url(#金色-17);}.cls-23{fill:url(#金色-18);}.cls-24{fill:url(#金色-19);}.cls-25{fill:url(#金色-20);}.cls-26{fill:url(#金色-21);}.cls-27{fill:url(#金色-22);}</style><clipPath id="clip-path"><rect class="cls-1" x="-504.62" y="724.55" width="1920.2" height="1039"/></clipPath><linearGradient id="金色" x1="1.11" y1="-44.11" x2="199.11" y2="217.28" gradientUnits="userSpaceOnUse"><stop offset="0.01" stop-color="#fbcf00"/><stop offset="0.25" stop-color="#fffcd1"/><stop offset="0.3" stop-color="#faf4c0"/><stop offset="0.38" stop-color="#efdd93"/><stop offset="0.5" stop-color="#dcba4b"/><stop offset="0.6" stop-color="#cb9b0c"/><stop offset="0.8" stop-color="#e8cd67"/><stop offset="0.87" stop-color="#f3e18b"/><stop offset="1" stop-color="#fffcd1"/></linearGradient><linearGradient id="金色-2" x1="64.36" y1="-92.02" x2="262.36" y2="169.37" xlink:href="#金色"/><linearGradient id="金色-3" x1="32.18" y1="-67.65" x2="230.18" y2="193.75" xlink:href="#金色"/><linearGradient id="金色-4" x1="39.85" y1="-73.46" x2="237.85" y2="187.93" xlink:href="#金色"/><linearGradient id="金色-5" x1="-30.18" y1="-20.41" x2="167.82" y2="240.98" xlink:href="#金色"/><linearGradient id="金色-6" x1="-28.1" y1="-21.98" x2="169.9" y2="239.41" xlink:href="#金色"/><linearGradient id="金色-7" x1="-59.43" y1="1.75" x2="138.57" y2="263.14" xlink:href="#金色"/><linearGradient id="金色-8" x1="-53.22" y1="-2.96" x2="144.78" y2="258.44" xlink:href="#金色"/><linearGradient id="金色-9" x1="-42.94" y1="-10.75" x2="155.06" y2="250.64" xlink:href="#金色"/><linearGradient id="金色-10" x1="-34.87" y1="-16.85" x2="163.13" y2="244.54" xlink:href="#金色"/><linearGradient id="金色-11" x1="-28.32" y1="-21.82" x2="169.68" y2="239.58" xlink:href="#金色"/><linearGradient id="金色-12" x1="-16.86" y1="-30.5" x2="181.14" y2="230.89" xlink:href="#金色"/><linearGradient id="金色-13" x1="-11.47" y1="-34.58" x2="186.53" y2="226.81" xlink:href="#金色"/><linearGradient id="金色-14" x1="-4.27" y1="-40.04" x2="193.73" y2="221.35" xlink:href="#金色"/><linearGradient id="金色-15" x1="2.04" y1="-44.82" x2="200.04" y2="216.57" xlink:href="#金色"/><linearGradient id="金色-16" x1="12.79" y1="-52.96" x2="210.79" y2="208.43" xlink:href="#金色"/><linearGradient id="金色-17" x1="8.92" y1="-50.03" x2="206.92" y2="211.36" xlink:href="#金色"/><linearGradient id="金色-18" x1="14.36" y1="-54.15" x2="212.36" y2="207.24" xlink:href="#金色"/><linearGradient id="金色-19" x1="20.91" y1="-59.11" x2="218.91" y2="202.28" xlink:href="#金色"/><linearGradient id="金色-20" x1="28.11" y1="-64.56" x2="226.11" y2="196.83" xlink:href="#金色"/><linearGradient id="金色-21" x1="34.61" y1="-69.49" x2="232.61" y2="191.9" xlink:href="#金色"/><linearGradient id="金色-22" x1="28.39" y1="-64.78" x2="226.39" y2="196.61" xlink:href="#金色"/></defs><g class="cls-2"><rect class="cls-3" x="-1235.8" y="-105.91" width="2644.38" height="1469.59" transform="translate(-302.87 127.45) rotate(-30)"/></g><g class="cls-4"><path class="cls-5" d="M108.92,62.41H107V56.34a1.66,1.66,0,0,0-3.31,0v6.07H90.27V58.56h7.14a1.72,1.72,0,0,0,0-3.44H79.51a1.72,1.72,0,1,0,0,3.44h7.33v3.85H78.75a1.75,1.75,0,0,0,0,3.5h8.12v1.9h-4.2c-3,0-5.51,2.81-5.51,6.14v6.56a5,5,0,0,0,4.75,5.25h5v3.33H79.53l-.69,0a1.73,1.73,0,0,0-1.72,1.75,1.77,1.77,0,0,0,1.59,1.72h8.13v3.27H77.62a1.74,1.74,0,0,0-.34,3.44l.14,0,31.42,0a5.84,5.84,0,0,0,5.56-5.93v-25A5.77,5.77,0,0,0,108.92,62.41ZM86.84,78.47v3.79H81.9a1.6,1.6,0,0,1-1.44-1.75v-2Zm0-3.44H80.46V74a2.46,2.46,0,0,1,2.17-2.65h4.21Zm9.63,5.48A1.6,1.6,0,0,1,95,82.26H90.27V78.47h6.2Zm0-7.46v2h-6.2V71.3H95A1.62,1.62,0,0,1,96.47,73.05Zm7.19,13.54a2.35,2.35,0,0,1-2.23,2.5H90.27V85.76H95a5,5,0,0,0,4.76-5.25V73.05a5,5,0,0,0-4.74-5.24H90.27v-1.9h13.39ZM90.27,92.52h11.16A5.84,5.84,0,0,0,107,86.59V65.86h1.88a2.31,2.31,0,0,1,2.2,2.43v25a2.34,2.34,0,0,1-2.22,2.5H90.27Z"/><path class="cls-5" d="M210.06,86.08h-2.57l0-25.45a5.71,5.71,0,0,0-5.82-5.44H184.37a5.64,5.64,0,0,0-5.76,5.35V86.08H176a1.69,1.69,0,0,0,.05,3.38H182l-4.88,6.21a1.63,1.63,0,0,0,1,2.93,1.62,1.62,0,0,0,1.24-.57h0a.08.08,0,0,0,0,0l5.55-6.79.09-.11h0a1.71,1.71,0,0,0,.31-1,1.64,1.64,0,0,0-.12-.63h16.35a1.63,1.63,0,0,0-.29.94,1.6,1.6,0,0,0,.29.95l0,.05,5,6.48a.83.83,0,0,0,.13.18l0,0A1.68,1.68,0,0,0,209.59,97a1.62,1.62,0,0,0-.48-1.18l-4.63-6.21a.44.44,0,0,0-.08-.11H210a1.69,1.69,0,0,0,0-3.38ZM182,70.85V66.66h22.05v4.19Zm0,7.44V74.21h22.05v4.08Zm22.05-15H182c0-.44,0-1.66,0-2V60.6a2.22,2.22,0,0,1,2.35-2.15h17.27a2.31,2.31,0,0,1,2.45,2.18Zm0,18.38v4.41H182V81.67Z"/><path class="cls-5" d="M161.61,92.37H159.7a2.47,2.47,0,0,1-2.2-2.66V77.59l3.48-3a0,0,0,0,0,0,0,1.73,1.73,0,0,0,.55-1.26,1.75,1.75,0,0,0-1.75-1.75,1.81,1.81,0,0,0-1.23.5l-6.94,6.08a5.69,5.69,0,0,0-5.36-4.61h-7.2l3.23-2.82h15.33a1.73,1.73,0,1,0,0-3.45H130.84a1.73,1.73,0,0,0,0,3.45H137l-11,9.72-.18.16h0a1.72,1.72,0,0,0,1.25,2.91,1.7,1.7,0,0,0,1.12-.41L135.05,77h6.41L128.63,88.07s0,0,0,0a1.65,1.65,0,0,0-.56,1.26,1.68,1.68,0,0,0,2.76,1.29l15.65-13.33a2.59,2.59,0,0,0,.3-.21,2.25,2.25,0,0,1,1.66,2.3v1.5L131.16,96s0,0,0,0a1.71,1.71,0,0,0-.53,1.22,1.69,1.69,0,0,0,2.8,1.27l15-13V93.3a2.36,2.36,0,0,1-2.24,2.51h-6.31a1.74,1.74,0,0,0-.3,3.46l.13,0,6.48,0a5.86,5.86,0,0,0,5.59-6V82.57l2.4-2.08v9.22c0,3.34,2.53,6.17,5.53,6.17h2a1.74,1.74,0,0,0,1.72-1.74A1.76,1.76,0,0,0,161.61,92.37Z"/><path class="cls-5" d="M126.83,69.27a1.71,1.71,0,0,0,1.57-1.06.14.14,0,0,1,0-.06s1.28-4,1.34-4.19a2.09,2.09,0,0,1,1.76-1.09h25.62a1.84,1.84,0,0,1,1.09.35,2,2,0,0,1,.65.78c.05.21.85,3.11,1.08,3.92a1.12,1.12,0,0,0,.06.23,0,0,0,0,0,0,0,1.67,1.67,0,0,0,3.23-.59,1.59,1.59,0,0,0,0-.36l0-.08a.43.43,0,0,1,0-.05l-.18-.65-1.24-4s0-.13-.14-.38a5.84,5.84,0,0,0-1.22-1.42,5.53,5.53,0,0,0-1.58-.92,4.42,4.42,0,0,0-1.66-.33H144.79V56.48a1.72,1.72,0,0,0-3.44,0v2.89h-9.87a4.54,4.54,0,0,0-1.67.33,4.78,4.78,0,0,0-1.43.81l-.11.08a4.62,4.62,0,0,0-1.14,1.26c-.12.24-.39.94-.4,1l-1.26,3.59-.21.58v0a1.52,1.52,0,0,0-.1.55A1.68,1.68,0,0,0,126.83,69.27Z"/><path class="cls-5" d="M31.87,67.21a1.72,1.72,0,1,0,3-1.68l-3.53-6.79-.05-.1a1.53,1.53,0,0,0-.18-.29,1.72,1.72,0,0,0-3.1,1,1.7,1.7,0,0,0,.29,1Z"/><path class="cls-5" d="M64,95.12H51.16A1.64,1.64,0,0,0,52,93.81V90.93H62.82a1.68,1.68,0,0,0,0-3.36H51.94V85.11h7.85A4.85,4.85,0,0,0,64.43,80V74a4.84,4.84,0,0,0-4.63-5.12H51.94V67.11H62.15a1.68,1.68,0,0,0,1.68-1.68,1.74,1.74,0,0,0-.06-.45h0a1.64,1.64,0,0,0,1.64-1.64v-.05a.08.08,0,0,0,0,0L65,59a3.83,3.83,0,0,0-1.36-2.5A5.08,5.08,0,0,0,62,55.58a6,6,0,0,0-1.71-.19H39.84a6.09,6.09,0,0,0-1.33.19,5.06,5.06,0,0,0-1.67.9A3.64,3.64,0,0,0,35.52,59l-.31,2.56c0,.43-.16,1.47-.16,1.49h0a1.39,1.39,0,0,0,0,.35A1.63,1.63,0,0,0,36.63,65h.08a1.76,1.76,0,0,0-.06.46,1.67,1.67,0,0,0,1.57,1.67H48.59v1.76H41.41c-2.91,0-5.36,2.74-5.36,6V80a4.86,4.86,0,0,0,4.62,5.12h7.92v2.46h-11A1.7,1.7,0,0,0,36,89.25a1.68,1.68,0,0,0,1.68,1.68H48.59v2.8a1.66,1.66,0,0,0,.8,1.39H38.8c-1.52,0-3.59-1.24-3.64-2.51V74.87a4.85,4.85,0,0,0-4.62-5.12l-1.67,0a1.3,1.3,0,0,0-.36,0,1.45,1.45,0,0,0-.44.17,1.67,1.67,0,0,0-.95,1.52A1.72,1.72,0,0,0,28,73a2.09,2.09,0,0,0,.57.19,3.17,3.17,0,0,0,.44,0h1.49a1.55,1.55,0,0,1,1.38,1.7V93.45a1.55,1.55,0,0,1-1.39,1.7H28.84a1.72,1.72,0,0,0-.05,3.44h.08l1.65,0A4.39,4.39,0,0,0,34,96.85a7.43,7.43,0,0,0,4.8,1.69H64a1.71,1.71,0,0,0,0-3.42ZM39.29,75.28v-.43a2.38,2.38,0,0,1,2.12-2.57h7.18v3Zm9.3,3.36v3H40.68A1.56,1.56,0,0,1,39.29,80V78.64Zm3.35-18.31s0,0,0,0a1.68,1.68,0,0,0-1.17-1.49h9.62a1.69,1.69,0,0,1,1.11.43,1.81,1.81,0,0,1,.4,1.09l.27,3a1.84,1.84,0,0,0,.05.41H51.94V60.33Zm-3.35.07v3.35H38.21l.41-3.42a1.8,1.8,0,0,1,.43-1.13,0,0,0,0,0,0,0,1.61,1.61,0,0,1,1.07-.4h9.64A1.71,1.71,0,0,0,48.59,60.4ZM61.18,75.28H51.94v-3h7.85A1.56,1.56,0,0,1,61.18,74Zm-9.24,3.36h9.24V80a1.55,1.55,0,0,1-1.39,1.7H51.94ZM28.87,98.43Z"/><path class="cls-5" d="M27.75,116h0l-.28-.13c-1.58-.65-2.39-1.36-2.39-2.08a1.32,1.32,0,0,1,.51-1.09,2.21,2.21,0,0,1,1.43-.42,2.33,2.33,0,0,1,1.13.27,2.85,2.85,0,0,1,.91.87l.08.11,2.14-1-.06-.14a3.23,3.23,0,0,0-1.6-1.72,5.91,5.91,0,0,0-2.79-.59,5,5,0,0,0-3.31,1,3.42,3.42,0,0,0-1.28,2.77,3.22,3.22,0,0,0,.85,2.24,11,11,0,0,0,3.3,2l.46.19c1.36.59,2.05,1.25,2.05,2a1.63,1.63,0,0,1-.57,1.31,2.37,2.37,0,0,1-1.58.5,3.23,3.23,0,0,1-1.76-.44A2.25,2.25,0,0,1,24,120.4l-.05-.18-2.21.93,0,.14a3.76,3.76,0,0,0,1.64,2.34,5.66,5.66,0,0,0,3.16.82,5.51,5.51,0,0,0,3.67-1.16,3.93,3.93,0,0,0,1.37-3.15,3.27,3.27,0,0,0-.85-2.28A9.25,9.25,0,0,0,27.75,116Z"/><path class="cls-5" d="M41.32,114.81a4.37,4.37,0,0,0-2.08.47,2.87,2.87,0,0,0-1,.82v-1H35.75v13h2.52v-4.9a3.81,3.81,0,0,0,1.12.81,4.45,4.45,0,0,0,1.86.39,4.31,4.31,0,0,0,3.3-1.32,5,5,0,0,0,1.2-3.54,4.94,4.94,0,0,0-1.22-3.46A4.21,4.21,0,0,0,41.32,114.81Zm1.82,4.83a2.9,2.9,0,0,1-.64,2,2.29,2.29,0,0,1-1.79.69,2.36,2.36,0,0,1-1.82-.75,2.9,2.9,0,0,1-.69-2,2.81,2.81,0,0,1,.65-2,2.68,2.68,0,0,1,3.63,0A2.89,2.89,0,0,1,43.14,119.64Z"/><path class="cls-5" d="M58.25,116.22a5.32,5.32,0,0,0-1.76-1,6.1,6.1,0,0,0-4.13,0,5.55,5.55,0,0,0-1.75,1,4.85,4.85,0,0,0-1.18,1.56,4.39,4.39,0,0,0-.41,1.86,4.28,4.28,0,0,0,.41,1.85A4.92,4.92,0,0,0,50.61,123a5.37,5.37,0,0,0,1.75,1A5.89,5.89,0,0,0,58.27,123a4.71,4.71,0,0,0,1.17-1.55,4.32,4.32,0,0,0,.4-1.86,4.51,4.51,0,0,0-.4-1.84A4.91,4.91,0,0,0,58.25,116.22Zm-1,3.4a2.55,2.55,0,0,1-.81,1.93,2.73,2.73,0,0,1-2,.79,2.77,2.77,0,0,1-2-.79,2.63,2.63,0,0,1-.8-1.93,2.58,2.58,0,0,1,.8-1.91,2.86,2.86,0,0,1,3.95,0A2.58,2.58,0,0,1,57.21,119.62Z"/><path class="cls-5" d="M69.47,114.91a4.69,4.69,0,0,0-1-.1,2.61,2.61,0,0,0-1.53.44,2.91,2.91,0,0,0-.67.72v-.87H63.81v9h2.51v-4a5.28,5.28,0,0,1,.46-2.56,1.49,1.49,0,0,1,1.41-.71,2.42,2.42,0,0,1,.69.08,1.61,1.61,0,0,1,.55.25l.17.1.86-1.85.07-.15-.15-.07A4.86,4.86,0,0,0,69.47,114.91Z"/><polygon class="cls-5" points="77.43 111.84 74.92 111.84 74.92 115.11 73.25 115.11 73.25 117.17 74.92 117.17 74.92 124.08 77.43 124.08 77.43 117.17 79.1 117.17 79.1 115.11 77.43 115.11 77.43 111.84"/><path class="cls-5" d="M95,109.47c-.26,0-.51,0-.74,0a3.43,3.43,0,0,0-2.57.87,3.72,3.72,0,0,0-.84,2.66v2.15H89.19v2.06h1.67v6.91h2.51v-6.91h2.3v-2.06h-2.3v-1.89a2.36,2.36,0,0,1,.31-1.38,1.2,1.2,0,0,1,1-.37,1.93,1.93,0,0,1,.49.06,2.15,2.15,0,0,1,.49.19l.25.13v-2.19l-.13,0C95.52,109.56,95.26,109.52,95,109.47Z"/><path class="cls-5" d="M105.35,120.14a2.26,2.26,0,0,1-.53,1.69,2.44,2.44,0,0,1-1.74.51,2.47,2.47,0,0,1-1.75-.51,2.31,2.31,0,0,1-.52-1.69v-5H98.3v4.45a5.16,5.16,0,0,0,1.14,3.72,5,5,0,0,0,3.66,1.17,4.93,4.93,0,0,0,3.62-1.18,5.21,5.21,0,0,0,1.14-3.71v-4.45h-2.51Z"/><path class="cls-5" d="M117.63,114.91a4.67,4.67,0,0,0-.94-.1,2.59,2.59,0,0,0-1.53.44,2.45,2.45,0,0,0-.67.72v-.87H112v9h2.51v-4a5.31,5.31,0,0,1,.45-2.56,1.5,1.5,0,0,1,1.41-.71,2.42,2.42,0,0,1,.69.08,1.66,1.66,0,0,1,.56.25l.16.1.9-1.93,0-.07-.16-.07A4.65,4.65,0,0,0,117.63,114.91Z"/><path class="cls-5" d="M130.09,116.1a2.84,2.84,0,0,0-1.25-1,5,5,0,0,0-1.87-.32,5.11,5.11,0,0,0-2.22.43,4,4,0,0,0-1.31,1v-1.11h-2.37v9h2.51V120a9.33,9.33,0,0,1,.09-1.52,1.57,1.57,0,0,1,.31-.73,2.07,2.07,0,0,1,.86-.67,3.4,3.4,0,0,1,1.31-.24,1.88,1.88,0,0,1,1.48.49,3.7,3.7,0,0,1,.43,2.17v4.6h2.52v-5.4a8.31,8.31,0,0,0-.11-1.7A2.33,2.33,0,0,0,130.09,116.1Z"/><path class="cls-5" d="M136,110.14a1.56,1.56,0,0,0-1.08.41,1.27,1.27,0,0,0-.46,1,1.31,1.31,0,0,0,.46,1A1.61,1.61,0,0,0,136,113a1.56,1.56,0,0,0,1.08-.41,1.38,1.38,0,0,0,0-2A1.61,1.61,0,0,0,136,110.14Z"/><rect class="cls-5" x="134.77" y="115.11" width="2.51" height="8.98"/><polygon class="cls-5" points="144.6 111.84 142.09 111.84 142.09 115.11 140.42 115.11 140.42 117.17 142.09 117.17 142.09 124.08 144.6 124.08 144.6 117.17 146.26 117.17 146.26 115.11 144.6 115.11 144.6 111.84"/><path class="cls-5" d="M156.3,120.14a2.23,2.23,0,0,1-.53,1.69,3.22,3.22,0,0,1-3.48,0,2.26,2.26,0,0,1-.52-1.69v-5h-2.52v4.45a5.16,5.16,0,0,0,1.15,3.72,5,5,0,0,0,3.65,1.17,4.89,4.89,0,0,0,3.62-1.18,5.17,5.17,0,0,0,1.14-3.71v-4.45H156.3Z"/><path class="cls-5" d="M168.58,114.91a4.75,4.75,0,0,0-.94-.1,2.56,2.56,0,0,0-1.53.44,2.74,2.74,0,0,0-.67.72v-.87h-2.51v9h2.51v-4a5.31,5.31,0,0,1,.45-2.56,1.51,1.51,0,0,1,1.42-.71,2.51,2.51,0,0,1,.69.08,1.7,1.7,0,0,1,.55.25l.16.1.91-1.93,0-.07-.15-.07A5.23,5.23,0,0,0,168.58,114.91Z"/><path class="cls-5" d="M181.52,119.52a4.52,4.52,0,0,0-1.34-3.47,5.25,5.25,0,0,0-3.7-1.24,5.19,5.19,0,0,0-3.71,1.36,4.5,4.5,0,0,0-1.46,3.45,4.6,4.6,0,0,0,1.41,3.51,5.34,5.34,0,0,0,3.76,1.32,6,6,0,0,0,2.87-.67,5.44,5.44,0,0,0,2.05-2l.09-.15-2-1-.14-.07-.08.13a3.26,3.26,0,0,1-1.16,1.24,3.42,3.42,0,0,1-1.68.38,2.35,2.35,0,0,1-2.51-2.24h7.6Zm-7.41-1.12a2.29,2.29,0,0,1,.78-1.14,3.29,3.29,0,0,1,3.32,0,1.76,1.76,0,0,1,.68,1.12Z"/><path class="cls-5" d="M233.71,42.78,128,2.05A3.21,3.21,0,0,0,125.87,2L2.23,41.61A3.21,3.21,0,0,0,0,44.68V64.6a3.22,3.22,0,0,0,6.44,0V47L126.76,8.45,229.34,48v68.84H191.6a3.22,3.22,0,1,0,0,6.43h41a3.22,3.22,0,0,0,3.21-3.22V45.78A3.23,3.23,0,0,0,233.71,42.78Z"/></g><path class="cls-6" d="M108.92,60.59H107V54.54a.1.1,0,0,1,0,0,1.66,1.66,0,0,0-3.31,0v6.07H90.27V56.73h7.14a1.72,1.72,0,0,0,0-3.44H79.51a1.72,1.72,0,0,0,0,3.44h7.33v3.86H78.75a1.75,1.75,0,0,0,0,3.49h8.12V66h-4.2c-3,0-5.51,2.81-5.51,6.14v6.56a5,5,0,0,0,4.75,5.25h5v3.33H79.53l-.69,0A1.74,1.74,0,0,0,77.12,89a1.76,1.76,0,0,0,1.59,1.7h8.13V94H77.62a1.73,1.73,0,0,0-1.72,1.75,1.71,1.71,0,0,0,1.38,1.69l.14,0,31.42,0a5.84,5.84,0,0,0,5.56-5.94v-25A5.77,5.77,0,0,0,108.92,60.59Zm-22.08,16v3.8H81.9a1.61,1.61,0,0,1-1.44-1.75v-2Zm0-3.44H80.46V72.12a2.46,2.46,0,0,1,2.17-2.65h4.21Zm9.63,5.48A1.61,1.61,0,0,1,95,80.44H90.27v-3.8h6.2Zm0-7.46v2h-6.2V69.47H95A1.62,1.62,0,0,1,96.47,71.22Zm7.19,13.54a2.35,2.35,0,0,1-2.23,2.5H90.27V83.93H95a5,5,0,0,0,4.76-5.26V71.22A5,5,0,0,0,95.05,66H90.27v-1.9h13.39ZM90.27,90.68h11.16A5.83,5.83,0,0,0,107,84.76V64h1.88a2.3,2.3,0,0,1,2.2,2.43v25a2.34,2.34,0,0,1-2.22,2.5H90.27Z"/><path class="cls-7" d="M210.06,84.26h-2.57l0-25.45a5.7,5.7,0,0,0-5.82-5.43H184.37a5.63,5.63,0,0,0-5.76,5.34V84.25H176a1.68,1.68,0,0,0-1.65,1.68,1.7,1.7,0,0,0,1.7,1.69H182l-4.88,6.22a1.62,1.62,0,1,0,2.21,2.35h0s0,0,0,0l5.55-6.79.09-.12a0,0,0,0,1,0,0,1.68,1.68,0,0,0,.31-1,1.64,1.64,0,0,0-.12-.63h16.35a1.64,1.64,0,0,0-.29,1,1.57,1.57,0,0,0,.29.94l0,0,5,6.49a1.09,1.09,0,0,0,.13.17s0,0,0,0a1.67,1.67,0,0,0,2.91-1.13,1.62,1.62,0,0,0-.48-1.18l-4.63-6.2a.36.36,0,0,0-.08-.12H210a1.69,1.69,0,0,0,0-3.37ZM182,69V64.83h22.05V69Zm0,7.45V72.38h22.05v4.09Zm22.05-15H182c0-.44,0-1.66,0-2v-.72a2.21,2.21,0,0,1,2.35-2.14h17.27a2.3,2.3,0,0,1,2.45,2.17Zm0,18.38v4.41H182V79.84Z"/><path class="cls-8" d="M161.61,90.54H159.7a2.46,2.46,0,0,1-2.2-2.66V75.77l3.48-3s0,0,0,0a1.73,1.73,0,0,0,.55-1.26,1.75,1.75,0,0,0-1.75-1.75,1.78,1.78,0,0,0-1.23.51l-6.94,6.07a5.69,5.69,0,0,0-5.36-4.6h-7.2l3.23-2.83h15.33a1.72,1.72,0,1,0,0-3.44H130.84a1.72,1.72,0,0,0,0,3.44H137l-11,9.72-.18.16s0,0,0,0a1.69,1.69,0,0,0-.48,1.18,1.73,1.73,0,0,0,1.73,1.73,1.71,1.71,0,0,0,1.12-.42l6.82-6.06h6.41L128.63,86.24s0,0,0,0a1.67,1.67,0,0,0-.56,1.26,1.67,1.67,0,0,0,2.76,1.29l15.65-13.33a1.74,1.74,0,0,0,.3-.2,2.23,2.23,0,0,1,1.66,2.29v1.5l-17.26,15.1s0,0,0,0a1.71,1.71,0,0,0-.53,1.22,1.69,1.69,0,0,0,1.69,1.69,1.75,1.75,0,0,0,1.11-.41l15-13v7.83a2.35,2.35,0,0,1-2.24,2.5h-6.31a1.74,1.74,0,0,0-.3,3.46l.13,0,6.48,0a5.85,5.85,0,0,0,5.59-6V80.75l2.4-2.09v9.22c0,3.35,2.53,6.17,5.53,6.17h2a1.76,1.76,0,0,0,0-3.51Z"/><path class="cls-9" d="M126.83,67.44a1.71,1.71,0,0,0,1.57-1.06.08.08,0,0,1,0,0l1.34-4.2A2.09,2.09,0,0,1,131.52,61h25.62a1.84,1.84,0,0,1,1.09.35,2,2,0,0,1,.65.78c.05.21.85,3.11,1.08,3.92a1.2,1.2,0,0,0,.06.24s0,0,0,0a1.69,1.69,0,0,0,1.56,1.08,1.67,1.67,0,0,0,1.67-1.67,1.47,1.47,0,0,0,0-.36l0-.09v0l-.18-.66-1.24-4s0-.13-.14-.37a5.83,5.83,0,0,0-1.22-1.43,5.53,5.53,0,0,0-1.58-.92,4.62,4.62,0,0,0-1.66-.33H144.79V54.65a1.72,1.72,0,0,0-3.44,0v2.89h-9.87a4.76,4.76,0,0,0-1.67.33,4.6,4.6,0,0,0-1.43.82l-.11.07A4.51,4.51,0,0,0,127.13,60c-.12.23-.39.94-.4,1l-1.26,3.59-.21.59v0a1.58,1.58,0,0,0-.1.56A1.68,1.68,0,0,0,126.83,67.44Z"/><path class="cls-10" d="M31.87,65.39a1.72,1.72,0,0,0,3.3-.69,1.67,1.67,0,0,0-.32-1l-3.53-6.8-.05-.09a1.59,1.59,0,0,0-.18-.3,1.72,1.72,0,0,0-3.1,1,1.67,1.67,0,0,0,.29,1Z"/><path class="cls-11" d="M64,93.3H51.16A1.66,1.66,0,0,0,52,92V89.1H62.82a1.68,1.68,0,0,0,1.68-1.67,1.69,1.69,0,0,0-1.66-1.69H51.94V83.29h7.85a4.86,4.86,0,0,0,4.64-5.13v-6A4.86,4.86,0,0,0,59.8,67H51.94V65.28H62.15a1.68,1.68,0,0,0,1.68-1.68,1.61,1.61,0,0,0-.06-.44h0a1.65,1.65,0,0,0,1.64-1.65v0a.06.06,0,0,0,0,0L65,57.13a3.83,3.83,0,0,0-1.36-2.5A5.08,5.08,0,0,0,62,53.75a6.34,6.34,0,0,0-1.71-.19H39.84a6.09,6.09,0,0,0-1.33.19,4.91,4.91,0,0,0-1.67.91,3.64,3.64,0,0,0-1.32,2.46l-.31,2.56c0,.44-.16,1.48-.16,1.49h0a1.45,1.45,0,0,0,0,.35,1.63,1.63,0,0,0,1.62,1.63h.08a1.76,1.76,0,0,0-.06.46,1.69,1.69,0,0,0,1.57,1.68H48.59V67H41.41c-2.91,0-5.36,2.75-5.36,6v5.14a4.87,4.87,0,0,0,4.62,5.13h7.92v2.45h-11A1.7,1.7,0,0,0,36,87.43a1.68,1.68,0,0,0,1.68,1.67H48.59v2.8a1.67,1.67,0,0,0,.8,1.4H38.8c-1.52,0-3.59-1.25-3.64-2.52V73a4.85,4.85,0,0,0-4.62-5.12l-1.67,0a1.86,1.86,0,0,0-.36,0,1.45,1.45,0,0,0-.44.17,1.69,1.69,0,0,0-.95,1.53A1.74,1.74,0,0,0,28,71.14a2.13,2.13,0,0,0,.57.18,3.17,3.17,0,0,0,.44,0h1.49A1.55,1.55,0,0,1,31.91,73V91.62a1.55,1.55,0,0,1-1.39,1.7H28.84a1.72,1.72,0,0,0-.05,3.44h.08l1.65,0A4.39,4.39,0,0,0,34,95a7.38,7.38,0,0,0,4.8,1.69H64a1.71,1.71,0,1,0,0-3.41ZM39.29,73.45V73a2.38,2.38,0,0,1,2.12-2.57h7.18v3Zm9.3,3.36v3.06H40.68a1.57,1.57,0,0,1-1.39-1.71V76.81ZM51.94,58.5s0,0,0,0A1.65,1.65,0,0,0,50.76,57h9.62a1.68,1.68,0,0,1,1.11.42,1.84,1.84,0,0,1,.4,1.09l.27,3a1.92,1.92,0,0,0,.05.41H51.94V58.5Zm-3.35.07v3.35H38.21l.41-3.42a1.8,1.8,0,0,1,.43-1.13h0a1.61,1.61,0,0,1,1.07-.4h9.64A1.68,1.68,0,0,0,48.59,58.57ZM61.18,73.45H51.94v-3h7.85a1.56,1.56,0,0,1,1.39,1.71Zm-9.24,3.36h9.24v1.35a1.56,1.56,0,0,1-1.39,1.71H51.94ZM28.87,96.6Z"/><path class="cls-12" d="M27.75,114.21h0l-.28-.13c-1.58-.66-2.39-1.36-2.39-2.09a1.32,1.32,0,0,1,.51-1.09,2.21,2.21,0,0,1,1.43-.42,2.33,2.33,0,0,1,1.13.27,2.85,2.85,0,0,1,.91.87l.08.11,2.14-1-.06-.15a3.23,3.23,0,0,0-1.6-1.72,6,6,0,0,0-2.79-.59,5,5,0,0,0-3.31,1,3.44,3.44,0,0,0-1.28,2.77,3.2,3.2,0,0,0,.85,2.24,10.77,10.77,0,0,0,3.3,2l.46.2c1.36.58,2.05,1.24,2.05,1.94a1.65,1.65,0,0,1-.57,1.32,2.37,2.37,0,0,1-1.58.49,3.23,3.23,0,0,1-1.76-.43,2.27,2.27,0,0,1-.93-1.28L24,118.4l-2.21.93,0,.14a3.76,3.76,0,0,0,1.64,2.33,5.66,5.66,0,0,0,3.16.82,5.51,5.51,0,0,0,3.67-1.16,3.92,3.92,0,0,0,1.37-3.14,3.26,3.26,0,0,0-.85-2.29A9.09,9.09,0,0,0,27.75,114.21Z"/><path class="cls-13" d="M41.32,113a4.37,4.37,0,0,0-2.08.47,3,3,0,0,0-1,.81v-1H35.75v13h2.52v-4.9a3.78,3.78,0,0,0,1.12.8,4.3,4.3,0,0,0,1.86.39,4.34,4.34,0,0,0,3.3-1.31,5,5,0,0,0,1.2-3.55,4.88,4.88,0,0,0-1.22-3.45A4.21,4.21,0,0,0,41.32,113Zm1.82,4.84a2.85,2.85,0,0,1-.64,2,2.3,2.3,0,0,1-1.79.7,2.4,2.4,0,0,1-1.82-.75,3,3,0,0,1-.69-2,2.82,2.82,0,0,1,.65-2,2.66,2.66,0,0,1,3.63,0A2.86,2.86,0,0,1,43.14,117.82Z"/><path class="cls-14" d="M58.25,114.39a5.32,5.32,0,0,0-1.76-1,6.1,6.1,0,0,0-4.13,0,5.39,5.39,0,0,0-1.75,1,4.7,4.7,0,0,0-1.18,1.55,4.42,4.42,0,0,0,0,3.72,5,5,0,0,0,1.18,1.56,5.37,5.37,0,0,0,1.75,1,5.92,5.92,0,0,0,4.12,0,5.93,5.93,0,0,0,1.79-1.06,4.71,4.71,0,0,0,1.17-1.55,4.32,4.32,0,0,0,.4-1.86,4.47,4.47,0,0,0-.4-1.83A5.07,5.07,0,0,0,58.25,114.39Zm-1,3.41a2.54,2.54,0,0,1-.81,1.92,2.73,2.73,0,0,1-2,.79,2.77,2.77,0,0,1-2-.79,2.7,2.7,0,0,1,0-3.84,2.86,2.86,0,0,1,3.95,0A2.59,2.59,0,0,1,57.21,117.8Z"/><path class="cls-15" d="M69.47,113.08a4.69,4.69,0,0,0-1-.1,2.61,2.61,0,0,0-1.53.44,2.91,2.91,0,0,0-.67.72v-.87H63.81v9h2.51v-4a5.28,5.28,0,0,1,.46-2.56,1.49,1.49,0,0,1,1.41-.71,2.1,2.1,0,0,1,.69.09,1.42,1.42,0,0,1,.55.24l.17.11.86-1.86.07-.15-.15-.07A4.86,4.86,0,0,0,69.47,113.08Z"/><polygon class="cls-16" points="77.43 110.01 74.92 110.01 74.92 113.28 73.25 113.28 73.25 115.34 74.92 115.34 74.92 122.26 77.43 122.26 77.43 115.34 79.1 115.34 79.1 113.28 77.43 113.28 77.43 110.01"/><path class="cls-17" d="M95,107.65a6.57,6.57,0,0,0-.74-.05,3.43,3.43,0,0,0-2.57.88,3.67,3.67,0,0,0-.84,2.66v2.14H89.19v2.07h1.67v6.91h2.51v-6.91h2.3v-2.07h-2.3v-1.9a2.36,2.36,0,0,1,.31-1.37,1.2,1.2,0,0,1,1-.37,1.57,1.57,0,0,1,.49.07,1.72,1.72,0,0,1,.49.18l.25.13v-2.19l-.13,0Z"/><path class="cls-18" d="M105.35,118.32a2.22,2.22,0,0,1-.53,1.68,2.44,2.44,0,0,1-1.74.51,2.47,2.47,0,0,1-1.75-.51,2.26,2.26,0,0,1-.52-1.68v-5H98.3v4.45a5.16,5.16,0,0,0,1.14,3.72,6.25,6.25,0,0,0,7.28,0,5.26,5.26,0,0,0,1.14-3.72v-4.45h-2.51Z"/><path class="cls-19" d="M117.63,113.08a4.67,4.67,0,0,0-.94-.1,2.59,2.59,0,0,0-1.53.44,2.45,2.45,0,0,0-.67.72v-.87H112v9h2.51v-4a5.31,5.31,0,0,1,.45-2.56,1.5,1.5,0,0,1,1.41-.71,2.1,2.1,0,0,1,.69.09,1.47,1.47,0,0,1,.56.24l.16.11.9-1.93,0-.08-.16-.07A5.41,5.41,0,0,0,117.63,113.08Z"/><path class="cls-20" d="M130.09,114.26a2.9,2.9,0,0,0-1.25-1A5,5,0,0,0,127,113a5.26,5.26,0,0,0-2.22.43,4,4,0,0,0-1.31,1v-1.11h-2.37v9h2.51v-4.11a9.33,9.33,0,0,1,.09-1.52,1.57,1.57,0,0,1,.31-.73,2,2,0,0,1,.86-.66,3.22,3.22,0,0,1,1.31-.25,1.84,1.84,0,0,1,1.48.5,3.64,3.64,0,0,1,.43,2.16v4.61h2.52v-5.41a8.13,8.13,0,0,0-.11-1.69A2.5,2.5,0,0,0,130.09,114.26Z"/><path class="cls-21" d="M136,108.31a1.56,1.56,0,0,0-1.08.41,1.29,1.29,0,0,0-.46,1,1.31,1.31,0,0,0,.46,1,1.63,1.63,0,0,0,2.16,0,1.33,1.33,0,0,0,.44-1,1.3,1.3,0,0,0-.44-1A1.57,1.57,0,0,0,136,108.31Z"/><rect class="cls-22" x="134.77" y="113.28" width="2.51" height="8.98"/><polygon class="cls-23" points="144.6 110.01 142.09 110.01 142.09 113.28 140.42 113.28 140.42 115.34 142.09 115.34 142.09 122.26 144.6 122.26 144.6 115.34 146.26 115.34 146.26 113.28 144.6 113.28 144.6 110.01"/><path class="cls-24" d="M156.3,118.32a2.22,2.22,0,0,1-.53,1.68,3.22,3.22,0,0,1-3.48,0,2.25,2.25,0,0,1-.52-1.68v-5h-2.52v4.45a5.16,5.16,0,0,0,1.15,3.72,6.23,6.23,0,0,0,7.27,0,5.21,5.21,0,0,0,1.14-3.72v-4.45H156.3Z"/><path class="cls-25" d="M168.58,113.08a4.75,4.75,0,0,0-.94-.1,2.56,2.56,0,0,0-1.53.44,2.74,2.74,0,0,0-.67.72v-.87h-2.51v9h2.51v-4a5.31,5.31,0,0,1,.45-2.56,1.51,1.51,0,0,1,1.42-.71,2.18,2.18,0,0,1,.69.09,1.49,1.49,0,0,1,.55.24l.16.11.91-1.93,0-.08-.15-.07A5.23,5.23,0,0,0,168.58,113.08Z"/><path class="cls-26" d="M181.52,117.69a4.53,4.53,0,0,0-1.34-3.47,5.93,5.93,0,0,0-7.41.12,4.52,4.52,0,0,0-1.46,3.46,4.59,4.59,0,0,0,1.41,3.5,5.34,5.34,0,0,0,3.76,1.32,5.88,5.88,0,0,0,2.87-.67,5.37,5.37,0,0,0,2.05-2l.09-.15-2-1-.14-.06-.08.12a3.26,3.26,0,0,1-1.16,1.24,3.32,3.32,0,0,1-1.68.38,2.48,2.48,0,0,1-1.78-.63,2.55,2.55,0,0,1-.73-1.61h7.6Zm-7.41-1.12a2.29,2.29,0,0,1,.78-1.14,2.76,2.76,0,0,1,1.63-.44,2.72,2.72,0,0,1,1.69.46,1.76,1.76,0,0,1,.68,1.12Z"/><path class="cls-27" d="M233.71,41,128,.22a3.27,3.27,0,0,0-2.16-.07L2.23,39.78A3.21,3.21,0,0,0,0,42.85V62.77a3.22,3.22,0,0,0,6.44,0V45.2L126.76,6.62,229.34,46.17V115H191.6a3.22,3.22,0,0,0,0,6.44h41a3.22,3.22,0,0,0,3.21-3.22V44A3.22,3.22,0,0,0,233.71,41Z"/></svg>