<svg id="Group_3" data-name="Group 3" xmlns="http://www.w3.org/2000/svg" xmlns:xlink="http://www.w3.org/1999/xlink" width="163.642" height="71.535" viewBox="0 0 163.642 71.535">
  <defs>
    <linearGradient id="linear-gradient" x1="0.513" y1="-0.041" x2="0.489" y2="1.036" gradientUnits="objectBoundingBox">
      <stop offset="0" stop-color="#fff"/>
      <stop offset="0.357" stop-color="#a6a7a7"/>
      <stop offset="0.74" stop-color="#5f5e5e"/>
    </linearGradient>
    <linearGradient id="linear-gradient-2" x1="0.242" y1="2.007" x2="0.574" y2="-0.011" gradientUnits="objectBoundingBox">
      <stop offset="0.139" stop-color="#fff"/>
      <stop offset="0.38" stop-color="#a6a7a7"/>
      <stop offset="0.476" stop-color="#9c9d9d"/>
      <stop offset="0.635" stop-color="#848484"/>
      <stop offset="0.827" stop-color="#5f5e5e"/>
    </linearGradient>
    <linearGradient id="linear-gradient-3" x1="0.5" y1="-0.44" x2="0.5" y2="0.937" gradientUnits="objectBoundingBox">
      <stop offset="0" stop-color="#a6a7a7"/>
      <stop offset="0.178" stop-color="#9c9d9d"/>
      <stop offset="0.472" stop-color="#848484"/>
      <stop offset="0.827" stop-color="#5f5e5e"/>
    </linearGradient>
    <linearGradient id="linear-gradient-4" x1="0.5" y1="-0.45" x2="0.5" y2="0.937" xlink:href="#linear-gradient-3"/>
  </defs>
  <g id="Group_14" data-name="Group 14" transform="translate(0 14.37)" opacity="0.3">
    <g id="Group_13" data-name="Group 13" transform="translate(0)">
      <path id="Path_15" data-name="Path 15" d="M54.069,97.128a.788.788,0,0,0,.06.136,3.715,3.715,0,0,1-.152-.634A2.1,2.1,0,0,0,54.069,97.128Z" transform="translate(-38.867 -69.88)" fill="#4b4b4b"/>
      <path id="Path_16" data-name="Path 16" d="M57.485,54.66a6.464,6.464,0,0,0-1.792-4.72,7.336,7.336,0,0,0-5.378-1.883,10.915,10.915,0,0,0-3.78.7,11.259,11.259,0,0,0-3.6,2.228,31.3,31.3,0,0,1,4.585-7.231,7.245,7.245,0,0,1,4.855-2.6c.671,0,1.265.013,1.791.042a3.5,3.5,0,0,1,1.424.371A3.321,3.321,0,0,1,56.72,42.6a6.973,6.973,0,0,1,.9,1.919l1.353-3.494A6.031,6.031,0,0,0,57,39.821a15.336,15.336,0,0,0-2.45-.722,16.613,16.613,0,0,0-2.467-.324c-.8-.047-1.494-.067-2.082-.067a26.6,26.6,0,0,0-5.33.611,23.145,23.145,0,0,0-4.783,1.6,15.71,15.71,0,0,0-3.914,2.557,12.079,12.079,0,0,0-2.711,3.495L24.137,64.757c-.292.584-.619,1.179-.985,1.79a29.838,29.838,0,0,1-1.892,2.615H33.326l1.343-2.354a7.608,7.608,0,0,0,.763.831,4.7,4.7,0,0,0,1.18.788,6.913,6.913,0,0,0,1.794.545,12.471,12.471,0,0,0,2.6.152A21.262,21.262,0,0,0,47.06,67.99a17.353,17.353,0,0,0,5.265-2.843,14.171,14.171,0,0,0,3.739-4.476A12.524,12.524,0,0,0,57.485,54.66Zm-13.3,6.111c-2,4.113-5.01,6.96-6.722,6.363a1.573,1.573,0,0,1-.941-1.042.787.787,0,0,1-.06-.136,2.1,2.1,0,0,1-.092-.5c-.248-1.624.3-4.168,1.6-6.848,2-4.11,5.01-6.96,6.728-6.365S46.185,56.659,44.184,60.771Z" transform="translate(-21.26 -38.708)" fill="#4b4b4b"/>
      <path id="Path_17" data-name="Path 17" d="M224.563,70.745a3.8,3.8,0,0,1-1.046,1.156,11.616,11.616,0,0,1-1.64,1.093,11.813,11.813,0,0,1-1.881.855,7.075,7.075,0,0,1-1.744.419A2.572,2.572,0,0,1,217,74.113c-.322-.144-.454-.453-.394-.918a6.938,6.938,0,0,1,.7-2.012L221.1,64.7a2.978,2.978,0,0,0,.263-1.641,3.626,3.626,0,0,0-.7-1.791,4.772,4.772,0,0,0-1.769-1.44,6.459,6.459,0,0,0-2.947-.589,18.334,18.334,0,0,0-5.75.85,17.013,17.013,0,0,0-4.828,2.508,4.044,4.044,0,0,0,.509-2.542,1.9,1.9,0,0,0-1.176-1.068,6.931,6.931,0,0,0-2.207-.416,17.066,17.066,0,0,0-2.731.086,22.617,22.617,0,0,0-2.775.478,15.06,15.06,0,0,0-2.274.724,2.718,2.718,0,0,1,.455,1.7,7.972,7.972,0,0,0-3.093-2.293,11.723,11.723,0,0,0-4.787-.917,29.221,29.221,0,0,0-7.274.808,19.1,19.1,0,0,0-5.4,2.23,15.788,15.788,0,0,0-1.525,1.077,7.041,7.041,0,0,0-.428-.65,7.937,7.937,0,0,0-3.237-2.473,11.772,11.772,0,0,0-4.783-.914c-2.767,0-11.658-.071-13.739.465a.2.2,0,0,1-.04.012c-.389.076-.786.164-1.2.273a15.369,15.369,0,0,0-3.167,1.243c-1.063.556-2.307,1.122-2.78,2.27a3.313,3.313,0,0,0,.242-1.406c-.122-1.652-2.082-2.927-3.559-3.234a9.772,9.772,0,0,0-2.032-.2c-.671,0-1.347.039-2.03.107s-1.358.181-2.008.307-1.277.284-1.863.462a11.019,11.019,0,0,0-1.531.567l.013,0h-9.128l-.653,1.443a8.233,8.233,0,0,0-.765-.83,4.719,4.719,0,0,0-1.179-.784,6.867,6.867,0,0,0-1.794-.544,12.085,12.085,0,0,0-2.6-.153,21.27,21.27,0,0,0-6.054,1.134,17.377,17.377,0,0,0-5.268,2.841,14.228,14.228,0,0,0-3.736,4.478A12.524,12.524,0,0,0,98.35,72.9a6.454,6.454,0,0,0,1.794,4.718,7.316,7.316,0,0,0,5.373,1.879,10.744,10.744,0,0,0,3.779-.7,11.176,11.176,0,0,0,3.607-2.223c-1.573,3.2-4.924,9.257-6.41,10.874a11.689,11.689,0,0,1-1.094,1.04,6.528,6.528,0,0,1-4.022,1.557,5.911,5.911,0,0,1-3.011-.435A4.892,4.892,0,0,1,96.4,86.675c-.447,1.172-.9,2.335-1.353,3.5-.055.135.58.605.67.685,5.726,4.831,16.227,2.335,21.461-2.047,3.169-2.649,4.71-6.853,6.549-10.427q1.751-3.414,3.5-6.838,1.568-3.075,3.143-6.153c.443-.865.892-1.733,1.328-2.6.293-.583.619-1.182.984-1.791.018-.029.024-.057.041-.086,0,0,0,0,0,.006a.01.01,0,0,0,0,.007c.026.032.046.061.071.093a3.726,3.726,0,0,1,.467,1c.68,2.158.748,7.585-8.982,17.188A22.839,22.839,0,0,0,136.856,74.6a18.98,18.98,0,0,0,4.444-6.143,6.383,6.383,0,0,1,.931-1.15,9.088,9.088,0,0,1,.965-.81,3.823,3.823,0,0,1,1.178-.441,4.33,4.33,0,0,1,1.31-.061,3.546,3.546,0,0,1,1.245.374,1.893,1.893,0,0,1,.166.1,14.6,14.6,0,0,0-1.159,2.495,8.856,8.856,0,0,0-.46,4.148,6.01,6.01,0,0,0,1.64,3.345,9.1,9.1,0,0,0,3.781,2.228,18.857,18.857,0,0,0,5.922.809,25.511,25.511,0,0,0,4.48-.395,18.575,18.575,0,0,0,4.172-1.244,15.351,15.351,0,0,0,3.631-2.2c.012-.012.022-.026.034-.031a6.909,6.909,0,0,0,.624.758,9.093,9.093,0,0,0,3.78,2.235,18.953,18.953,0,0,0,5.924.806c.462,0,.921-.022,1.383-.04,0,0-.008.006-.02.006h16.8l7.385-14.115a2.883,2.883,0,0,1,1.289-1.137,8.1,8.1,0,0,1,2.051-.809,3.257,3.257,0,0,1,1.662-.048c.428.137.475.505.153,1.119l-5.014,8.8-.26.481a5.233,5.233,0,0,0-.632,1.88,2.478,2.478,0,0,0,.326,1.635,3.048,3.048,0,0,0,1.4,1.163,6.481,6.481,0,0,0,2.622.435,21.672,21.672,0,0,0,3.955-.415A27.748,27.748,0,0,0,217,77.129a27.038,27.038,0,0,0,4.238-2.01,13.786,13.786,0,0,0,3.365-2.711Zm-106.29-1.668c-1.994,4.108-5.007,6.961-6.723,6.365s-1.491-4.415.512-8.525,5.009-6.965,6.726-6.365S120.274,64.964,118.272,69.077ZM159.29,66.1c1.389-2.861,3.276-5.112,4.87-6.014a3.57,3.57,0,0,1,.356-.18,2.024,2.024,0,0,1,1.5-.167c1.684.581,1.494,4.248-.385,8.261h-7.144A20.2,20.2,0,0,1,159.29,66.1Zm8.676,5.662a13.338,13.338,0,0,1-1.44,2.336,9.209,9.209,0,0,1-1.924,1.858,9.041,9.041,0,0,1-2.473,1.246,9.73,9.73,0,0,1-3.082.459,3.65,3.65,0,0,1-2.512-.679,2.288,2.288,0,0,1-.7-1.808,6.432,6.432,0,0,1,.723-2.6,21.743,21.743,0,0,1,1.788-3.04h10.038a9.44,9.44,0,0,0-.336,2.245ZM181.635,66.1c2-4.111,5.012-6.966,6.728-6.361,1.68.581,1.494,4.248-.389,8.261h-7.145C181.059,67.379,181.324,66.741,181.635,66.1Zm-2.454,10.812a2.325,2.325,0,0,1-.7-1.817,6.505,6.505,0,0,1,.72-2.6A21.764,21.764,0,0,1,181,69.455h10.673l-2.093,4.008c-.131.189-.266.379-.408.559a9.385,9.385,0,0,1-1.922,1.857,9.176,9.176,0,0,1-2.474,1.245,9.772,9.772,0,0,1-3.078.457A3.67,3.67,0,0,1,179.181,76.908Z" transform="translate(-60.966 -49.012)" fill="#4b4b4b"/>
    </g>
  </g>
  <g id="Group_15" data-name="Group 15" transform="translate(62.501 4.677)">
    <path id="Path_18" data-name="Path 18" d="M175.1,17.719s-5.932.4-10.065,3.758c.116.373.787,2.3,2.2,2.462a4.194,4.194,0,0,0,4.649-3.539,12.522,12.522,0,0,1,1.513,1.948s-4.661,2.036-4.306,4.424a8.762,8.762,0,0,0,1.505,2.665,1.744,1.744,0,0,0,1.081.587C174.231,27.745,176.024,23.968,175.1,17.719Zm-7.019,5.56a1.352,1.352,0,1,1,1.361-1.357A1.362,1.362,0,0,1,168.077,23.279Z" transform="translate(-161.134 -17.719)" fill="#8cb808"/>
    <path id="Path_19" data-name="Path 19" d="M162.776,34.211c-.784.015-.8.7-.813,1.089-.031.78-.963,1.054-1.436.261s.24-2.226.545-3.4c.514-1.956-1-3.01-1.871-3.668-2.107,2.344-3.328,5.77-2.143,10.792A17.2,17.2,0,0,0,165.4,37.1a8.723,8.723,0,0,0-.942-1.484C163.683,34.839,163.263,34.2,162.776,34.211Z" transform="translate(-156.593 -23.519)" fill="#8cb808"/>
  </g>
  <g id="Group_16" data-name="Group 16" transform="translate(35.686 0)">
    <path id="Path_20" data-name="Path 20" d="M107.68,23.96c.48-.926,1.71-3.025,1.732-4.283.08-3.642-7.248-5.83-7.248-5.83a18.707,18.707,0,0,1,1.874-3.2c.574,1.8,2.908,5.584,7.6,4.43,2.064-.51,2.7-3.485,2.811-4.1C107.272,6.622,98.53,7.714,98.53,7.714c.119,9.157,3.465,14.38,7.676,17.32A2.527,2.527,0,0,0,107.68,23.96Zm2.067-13.776a2.047,2.047,0,1,1-1.775,2.287A2.047,2.047,0,0,1,109.747,10.184Z" transform="translate(-98.53 -7.592)" fill="#3d9e26"/>
    <path id="Path_21" data-name="Path 21" d="M135.87,34.086c-.4-7.842-3.311-12.753-7.015-15.809-1.162,1.149-3.268,3.023-2.118,5.891.679,1.688,2.016,3.711,1.463,4.989s-2,1.041-2.194-.118c-.1-.587-.249-1.609-1.416-1.488-.725.082-1.234,1.122-2.237,2.433a13.935,13.935,0,0,0-1.118,2.4C128.127,35.518,135.87,34.086,135.87,34.086Z" transform="translate(-110.749 -13.343)" fill="#3d9e26"/>
  </g>
  <g id="Group_17" data-name="Group 17" transform="translate(0 13.452)">
    <path id="Path_22" data-name="Path 22" d="M54.069,95.141a.766.766,0,0,0,.06.136,3.694,3.694,0,0,1-.152-.634A2.1,2.1,0,0,0,54.069,95.141Z" transform="translate(-38.867 -67.892)" fill="none"/>
    <path id="Path_23" data-name="Path 23" d="M57.485,52.671a6.465,6.465,0,0,0-1.792-4.72,7.336,7.336,0,0,0-5.378-1.882,10.914,10.914,0,0,0-3.78.7A11.244,11.244,0,0,0,42.931,49a31.289,31.289,0,0,1,4.585-7.231,7.236,7.236,0,0,1,4.855-2.6c.671,0,1.265.012,1.791.042a3.5,3.5,0,0,1,1.424.37,3.34,3.34,0,0,1,1.134,1.028,6.987,6.987,0,0,1,.9,1.92l1.353-3.494A6.016,6.016,0,0,0,57,37.833a15.288,15.288,0,0,0-2.45-.722,16.554,16.554,0,0,0-2.467-.324c-.8-.047-1.494-.067-2.082-.067a26.631,26.631,0,0,0-5.33.611,23.145,23.145,0,0,0-4.783,1.6,15.735,15.735,0,0,0-3.914,2.557,12.087,12.087,0,0,0-2.711,3.5l-9.131,17.79q-.438.876-.985,1.79a29.851,29.851,0,0,1-1.892,2.616H33.326l1.343-2.354a7.609,7.609,0,0,0,.763.832,4.735,4.735,0,0,0,1.18.788,6.932,6.932,0,0,0,1.794.545,12.5,12.5,0,0,0,2.6.152A21.246,21.246,0,0,0,47.06,66a17.362,17.362,0,0,0,5.265-2.843,14.189,14.189,0,0,0,3.739-4.477A12.524,12.524,0,0,0,57.485,52.671Zm-13.3,6.112c-2,4.112-5.01,6.96-6.722,6.364a1.576,1.576,0,0,1-.941-1.043.766.766,0,0,1-.06-.136,2.1,2.1,0,0,1-.092-.5c-.248-1.623.3-4.168,1.6-6.848,2-4.109,5.01-6.959,6.728-6.365S46.185,54.671,44.184,58.783Z" transform="translate(-21.26 -36.719)" fill="url(#linear-gradient)"/>
    <path id="Path_24" data-name="Path 24" d="M224.563,68.758a3.808,3.808,0,0,1-1.046,1.155,11.5,11.5,0,0,1-1.64,1.093,11.9,11.9,0,0,1-1.881.856,7.093,7.093,0,0,1-1.744.419A2.561,2.561,0,0,1,217,72.126c-.322-.144-.454-.454-.394-.918a6.935,6.935,0,0,1,.7-2.013l3.788-6.482a2.977,2.977,0,0,0,.263-1.641,3.627,3.627,0,0,0-.7-1.792,4.776,4.776,0,0,0-1.769-1.44,6.453,6.453,0,0,0-2.947-.589,18.321,18.321,0,0,0-5.75.851,16.977,16.977,0,0,0-4.828,2.507,4.043,4.043,0,0,0,.509-2.541A1.9,1.9,0,0,0,204.7,57a6.906,6.906,0,0,0-2.207-.417,16.961,16.961,0,0,0-2.731.086,22.533,22.533,0,0,0-2.775.479,15.067,15.067,0,0,0-2.274.723,2.717,2.717,0,0,1,.455,1.7,7.962,7.962,0,0,0-3.093-2.293,11.715,11.715,0,0,0-4.787-.919,29.218,29.218,0,0,0-7.274.809,19.129,19.129,0,0,0-5.4,2.229,15.707,15.707,0,0,0-1.525,1.077,6.966,6.966,0,0,0-.428-.649,7.935,7.935,0,0,0-3.237-2.474,11.78,11.78,0,0,0-4.783-.913c-2.767,0-11.658-.071-13.739.465a.281.281,0,0,1-.04.011c-.389.076-.786.164-1.2.273a15.343,15.343,0,0,0-3.167,1.243c-1.063.556-2.307,1.122-2.78,2.27a3.314,3.314,0,0,0,.242-1.407c-.122-1.652-2.082-2.926-3.559-3.233a9.74,9.74,0,0,0-2.032-.2c-.671,0-1.347.039-2.03.107s-1.358.182-2.008.307-1.277.285-1.863.462a10.9,10.9,0,0,0-1.531.568l.013,0h-9.128l-.653,1.444a8.185,8.185,0,0,0-.765-.831,4.733,4.733,0,0,0-1.179-.785,6.885,6.885,0,0,0-1.794-.545,12.088,12.088,0,0,0-2.6-.152,21.238,21.238,0,0,0-6.054,1.134,17.367,17.367,0,0,0-5.268,2.841A14.231,14.231,0,0,0,99.77,64.9,12.525,12.525,0,0,0,98.35,70.91a6.455,6.455,0,0,0,1.794,4.718,7.316,7.316,0,0,0,5.373,1.879,10.735,10.735,0,0,0,3.779-.7,11.182,11.182,0,0,0,3.607-2.223c-1.573,3.2-4.924,9.256-6.41,10.874a11.8,11.8,0,0,1-1.094,1.039,6.53,6.53,0,0,1-4.022,1.557,5.926,5.926,0,0,1-3.011-.434A4.9,4.9,0,0,1,96.4,84.686c-.447,1.172-.9,2.335-1.353,3.5-.055.136.58.606.67.685,5.726,4.833,16.227,2.336,21.461-2.046,3.169-2.648,4.71-6.853,6.549-10.427q1.751-3.415,3.5-6.838,1.568-3.075,3.143-6.153c.443-.866.892-1.733,1.328-2.6.293-.583.619-1.182.984-1.791.018-.03.024-.057.041-.086,0,0,0,0,0,0a.012.012,0,0,0,0,.008c.026.032.046.061.071.093a3.723,3.723,0,0,1,.467,1c.68,2.159.748,7.586-8.982,17.189a22.849,22.849,0,0,0,12.572-4.616,18.975,18.975,0,0,0,4.444-6.143,6.4,6.4,0,0,1,.931-1.15,9.205,9.205,0,0,1,.965-.81,3.846,3.846,0,0,1,1.178-.44,4.331,4.331,0,0,1,1.31-.061,3.527,3.527,0,0,1,1.245.374,1.891,1.891,0,0,1,.166.1,14.564,14.564,0,0,0-1.159,2.495,8.852,8.852,0,0,0-.46,4.147,6.01,6.01,0,0,0,1.64,3.346A9.1,9.1,0,0,0,150.9,76.7a18.842,18.842,0,0,0,5.922.809,25.512,25.512,0,0,0,4.48-.4,18.551,18.551,0,0,0,4.172-1.244,15.337,15.337,0,0,0,3.631-2.205.164.164,0,0,1,.034-.03,6.9,6.9,0,0,0,.624.758,9.1,9.1,0,0,0,3.78,2.236,18.968,18.968,0,0,0,5.924.806c.462,0,.921-.022,1.383-.041,0,0-.008.006-.02.006h16.8l7.385-14.115a2.886,2.886,0,0,1,1.289-1.137,8.115,8.115,0,0,1,2.051-.809,3.26,3.26,0,0,1,1.662-.046c.428.137.475.505.153,1.118l-5.014,8.8-.26.481a5.227,5.227,0,0,0-.632,1.88,2.479,2.479,0,0,0,.326,1.635,3.04,3.04,0,0,0,1.4,1.163,6.472,6.472,0,0,0,2.622.436,21.758,21.758,0,0,0,3.955-.415A27.749,27.749,0,0,0,217,75.141a27.078,27.078,0,0,0,4.238-2.01,13.787,13.787,0,0,0,3.365-2.711Zm-106.29-1.668c-1.994,4.107-5.007,6.961-6.723,6.364s-1.491-4.416.512-8.525,5.009-6.965,6.726-6.366S120.274,62.975,118.272,67.089Zm41.018-2.982c1.389-2.86,3.276-5.111,4.87-6.014a3.664,3.664,0,0,1,.356-.179,2.026,2.026,0,0,1,1.5-.168c1.684.581,1.494,4.248-.385,8.262h-7.144A20.268,20.268,0,0,1,159.29,64.108Zm8.676,5.663a13.347,13.347,0,0,1-1.44,2.335,9.2,9.2,0,0,1-1.924,1.859,9.066,9.066,0,0,1-2.473,1.246,9.743,9.743,0,0,1-3.082.46,3.657,3.657,0,0,1-2.512-.679,2.291,2.291,0,0,1-.7-1.808,6.436,6.436,0,0,1,.723-2.6,21.683,21.683,0,0,1,1.788-3.039h10.038a9.432,9.432,0,0,0-.336,2.244Zm13.669-5.663c2-4.111,5.012-6.964,6.728-6.36,1.68.581,1.494,4.248-.389,8.262h-7.145C181.059,65.392,181.324,64.753,181.635,64.108Zm-2.454,10.812a2.323,2.323,0,0,1-.7-1.816,6.5,6.5,0,0,1,.72-2.6A21.687,21.687,0,0,1,181,67.468h10.673l-2.093,4.008c-.131.189-.266.378-.408.558a9.37,9.37,0,0,1-1.922,1.856,9.15,9.15,0,0,1-2.474,1.246,9.772,9.772,0,0,1-3.078.457A3.665,3.665,0,0,1,179.181,74.919Z" transform="translate(-60.966 -47.023)" fill="url(#linear-gradient-2)"/>
  </g>
  <path id="Path_25" data-name="Path 25" d="M207.834,120.4c0,.4-.23.608-.649.608h-7.756a.591.591,0,0,1-.654-.653c0-.348.234-.539.654-.539h2.987V118.2a.592.592,0,0,1,.655-.653h.652a.593.593,0,0,1,.658.653v1.614h2.8C207.6,119.818,207.834,120.029,207.834,120.4Zm-8.782,15a23.088,23.088,0,0,0,1.331-4.486.55.55,0,0,1,.8-.468l.42.14a.643.643,0,0,1,.466.8,26.1,26.1,0,0,1-1.468,4.669.563.563,0,0,1-.891.3l-.323-.183C199.028,135.958,198.915,135.7,199.052,135.4Zm1.24-6.448a.593.593,0,0,1-.657-.651v-4.834a.6.6,0,0,1,.657-.66h6.237a.594.594,0,0,1,.656.66V128.3a.592.592,0,0,1-.656.651h-2.076v6.353c0,2.431-.145,2.712-1.732,2.712-.281,0-.725-.026-1.309-.071a.669.669,0,0,1-.651-.677c-.024-.423.184-.632.586-.608a2.881,2.881,0,0,0,.558.047c.769,0,.6-.7.6-1.331v-6.425Zm1.307-1.075h3.67v-4.02H201.6Zm4.11,5.815c-.255-.817-.537-1.615-.791-2.266a.634.634,0,0,1,.3-.862l.28-.141a.579.579,0,0,1,.889.3,23.87,23.87,0,0,1,.888,2.432.639.639,0,0,1-.353.836l-.326.191C206.177,134.4,205.854,134.23,205.709,133.693Zm1.753-11.047a.593.593,0,0,1,.657-.654h1.843v-3.551a.589.589,0,0,1,.655-.654h.607a.592.592,0,0,1,.655.654v3.551h4.341a.654.654,0,1,1,0,1.309h-4.365c-.143,6.376-1.8,11.33-5,14.508a.566.566,0,0,1-.932-.05l-.215-.261a.636.636,0,0,1,.024-.907c2.686-2.9,4.136-7.4,4.229-13.289h-1.843A.594.594,0,0,1,207.462,122.646Zm6.658,13.806c.49,0,.719-.187.886-.937a34.887,34.887,0,0,0,.233-4.668c0-.467.26-.7.7-.634l.492.072a.636.636,0,0,1,.606.723,27.481,27.481,0,0,1-.445,5.746c-.161.516-1.095.96-2.474.96-1.914,0-2.241-.233-2.241-1.941v-8.43a.592.592,0,0,1,.655-.658h.392a.6.6,0,0,1,.659.658v8.035C213.585,136.522,213.489,136.452,214.12,136.452Zm.351-15.955c-.492-.865-.91-1.586-1.285-2.173a.628.628,0,0,1,.163-.913l.258-.209a.567.567,0,0,1,.912.165c.487.771.981,1.587,1.471,2.407a.629.629,0,0,1-.19.912l-.277.229C215.17,121.2,214.775,121.055,214.471,120.5Z" transform="translate(-116.792 -66.494)" fill="url(#linear-gradient-3)"/>
  <path id="Path_26" data-name="Path 26" d="M259.388,134.561a17.848,17.848,0,0,1-1.754,3.311.554.554,0,0,1-.907.145l-.328-.272a.63.63,0,0,1-.14-.936,21.305,21.305,0,0,0,2.362-6.205.592.592,0,0,1,.768-.544l.582.121a.623.623,0,0,1,.516.817c-.115.519-.28,1.135-.488,1.831a6.375,6.375,0,0,0,3.875,2.965v-6.975h-7.29a.6.6,0,0,1-.652-.688c0-.374.232-.569.652-.569h16.122a.607.607,0,0,1,.652.69c0,.37-.231.567-.652.567h-6.8v2.894h5.418a.609.609,0,0,1,.655.694c0,.347-.233.543-.655.543h-5.418v3.267a43.863,43.863,0,0,0,6,.319h.817c.44,0,.653.25.63.721a.569.569,0,0,1-.652.593h-.795C264.808,137.849,261.444,136.961,259.388,134.561Zm12.289-16.525v6.953a.61.61,0,0,1-.657.691H258.267a.609.609,0,0,1-.655-.691v-6.953a.609.609,0,0,1,.655-.69h12.754A.61.61,0,0,1,271.677,118.037Zm-12.033,2.9h10v-2.425h-10Zm0,3.61h10V122h-10Z" transform="translate(-147.553 -66.659)" fill="url(#linear-gradient-4)"/>
  <g id="Group_18" data-name="Group 18" transform="translate(133.238 50.455)">
    <path id="Path_27" data-name="Path 27" d="M324.28,148.84c-.1-.981-.229-1.984-.4-3.06-.048-.444-.35-.631-.81-.541l-.351.069c-.452.073-.654.331-.581.75.129.958.251,1.921.356,2.949a.6.6,0,0,0,.78.608l.379-.045C324.1,149.5,324.331,149.264,324.28,148.84Z" transform="translate(-316.412 -132.112)" fill="#3d9e26"/>
    <path id="Path_28" data-name="Path 28" d="M311.907,145.663l-.427-.046a.606.606,0,0,0-.761.606,36.727,36.727,0,0,1-.7,4.916.6.6,0,0,0,.555.766l.379.094a.647.647,0,0,0,.854-.51,41.365,41.365,0,0,0,.732-5.147C312.563,145.946,312.363,145.711,311.907,145.663Z" transform="translate(-309.888 -132.324)" fill="#3d9e26"/>
    <path id="Path_29" data-name="Path 29" d="M316.666,129.117c.078.325.354.443.808.348l.4-.093c.455-.117.631-.372.532-.795-.353-1.494-.708-2.9-.936-3.67a.6.6,0,0,0-.856-.448l-.353.1c-.456.116-.605.4-.478.8.176.605.35,1.355.527,2.173l-2.748.163a64.357,64.357,0,0,0,3.708-6.479.618.618,0,0,0-.3-.89l-.329-.208a.61.61,0,0,0-.959.28c-.73,1.449-1.464,2.83-2.216,4.114,0-.024-.557-1.05-.759-1.4.784-1.547,1.485-2.973,2.093-4.332a.6.6,0,0,0-.324-.862l-.436-.21a.606.606,0,0,0-.931.326c-.478,1.193-.955,2.244-1.41,3.2l-.3-.564a.522.522,0,0,0-.984,0l-.3.494a.771.771,0,0,0-.024.894c.707,1.285,1.513,2.686,2.318,4.251l-.928,1.522-1.037.073c-.453.024-.7.235-.681.582.022.42.277.633.73.611l2.472-.169v8.749a.614.614,0,0,0,.7.652h.687a.614.614,0,0,0,.7-.652v-8.912l1.51-.118Z" transform="translate(-309.759 -117.25)" fill="#3d9e26"/>
    <path id="Path_30" data-name="Path 30" d="M331.151,142.865l.374-.254a.643.643,0,0,0,.251-.889c-.227-.447-.5-1.053-.982-2.06a.638.638,0,0,0-.984-.3l-.354.188a.613.613,0,0,0-.3.887c.583,1.265.908,1.967,1.183,2.525C330.439,143.193,330.743,143.148,331.151,142.865Z" transform="translate(-320.152 -128.895)" fill="#3d9e26"/>
    <path id="Path_31" data-name="Path 31" d="M337.829,135.7a21.252,21.252,0,0,1-2.7-3.693,20.432,20.432,0,0,0,2.243-3.019.641.641,0,0,0-.122-.889l-.306-.282a.569.569,0,0,0-.981.139,16.712,16.712,0,0,1-1.662,2.456,28.221,28.221,0,0,1-1.24-3.274v-.44h4.213c.453,0,.7-.189.7-.542,0-.418-.249-.65-.7-.65h-1.447a.151.151,0,0,1-.02-.1q.816-3.04,1.479-6.329c.08-.406-.393-.636-.757-.688-.108-.012-.491-.05-.574.025-.015.018-3.8.024-3.8.024a.13.13,0,0,1-.109-.059.1.1,0,0,1-.014-.1l.175-.571a.624.624,0,0,0-.075-.56.688.688,0,0,0-.515-.307h-.15a1.036,1.036,0,0,0-.515.138,1,1,0,0,0-.419.5q-1.11,3.5-2.293,6.258a.6.6,0,0,0,.039.558.647.647,0,0,0,.483.309,1.206,1.206,0,0,0,.715-.12,1.046,1.046,0,0,0,.463-.517c.02-.046.043-.1.073-.164a.16.16,0,0,1,.175-.111h4.246c.11,0,.162.05.149.16-.017.018-.149.534-.4,1.555a.21.21,0,0,1-.075.1h-6.366c-.453,0-.7.185-.7.533a.619.619,0,0,0,.7.66h3.2v3.386a33.186,33.186,0,0,1-4.864,4.985.588.588,0,0,0-.124.912l.124.166a.611.611,0,0,0,.984.115,35.763,35.763,0,0,0,3.879-3.789v2.243c0,1.595-.122,1.735-.576,1.735-.229,0-.658-.028-1.16-.071s-.784.118-.759.466a.7.7,0,0,0,.708.681c.6.042,1.135.067,1.46.067,2.194,0,2.446-.418,2.446-2.995v-2.943a19.669,19.669,0,0,0,3.583,5.308.6.6,0,0,0,1.008-.047l.223-.283A.645.645,0,0,0,337.829,135.7Zm-7.1-13.309a.129.129,0,0,1-.1-.059c-.034-.035-.046-.071-.025-.1.358-.993.639-1.768.834-2.331a.257.257,0,0,1,.25-.161h3.623c.118,0,.166.054.153.161q-.2,1.005-.517,2.305a.2.2,0,0,1-.222.183Z" transform="translate(-318.389 -116.841)" fill="#3d9e26"/>
    <path id="Path_32" data-name="Path 32" d="M333.769,129.42a.763.763,0,0,0,.816.7H336.2a.767.767,0,0,0,.819-.7h0a.765.765,0,0,0-.819-.7h-1.612a.761.761,0,0,0-.816.7Z" transform="translate(-322.68 -123.237)" fill="#3d9e26"/>
    <path id="Path_33" data-name="Path 33" d="M337.5,129.42a.765.765,0,0,0,.817.7h1.616a.762.762,0,0,0,.814-.7h0a.76.76,0,0,0-.814-.7h-1.616a.763.763,0,0,0-.817.7Z" transform="translate(-324.687 -123.237)" fill="#3d9e26"/>
    <path id="Path_34" data-name="Path 34" d="M340.556,129.42a.763.763,0,0,0,.816.7h1.614a.767.767,0,0,0,.819-.7h0a.766.766,0,0,0-.819-.7h-1.614a.761.761,0,0,0-.816.7Z" transform="translate(-326.333 -123.237)" fill="#3d9e26"/>
    <path id="Path_35" data-name="Path 35" d="M336.707,120.938a.767.767,0,0,0,.817.7h1.615a.765.765,0,0,0,.817-.7h0a.766.766,0,0,0-.817-.7h-1.615a.767.767,0,0,0-.817.7Z" transform="translate(-324.261 -118.671)" fill="#3d9e26"/>
    <path id="Path_36" data-name="Path 36" d="M339.6,120.938a.761.761,0,0,0,.814.7h1.613a.767.767,0,0,0,.818-.7h0a.767.767,0,0,0-.818-.7h-1.613a.761.761,0,0,0-.814.7Z" transform="translate(-325.817 -118.671)" fill="#3d9e26"/>
    <path id="Path_37" data-name="Path 37" d="M342.3,120.938a.766.766,0,0,0,.816.7h1.615a.767.767,0,0,0,.817-.7h0a.767.767,0,0,0-.817-.7h-1.615a.766.766,0,0,0-.816.7Z" transform="translate(-327.271 -118.671)" fill="#3d9e26"/>
  </g>
</svg>
